<mxfile host="Electron" modified="2024-07-25T10:53:40.165Z" agent="Mozilla/5.0 (Windows NT 10.0; Win64; x64) AppleWebKit/537.36 (KHTML, like Gecko) draw.io/24.6.4 Chrome/124.0.6367.207 Electron/30.0.6 Safari/537.36" etag="I8mFeO4RPtxThk_CN_ql" version="24.6.4" type="device">
  <diagram id="C5RBs43oDa-KdzZeNtuy" name="Page-1">
    <mxGraphModel dx="3328" dy="3182" grid="1" gridSize="10" guides="1" tooltips="1" connect="1" arrows="1" fold="1" page="1" pageScale="1" pageWidth="827" pageHeight="1169" math="0" shadow="0">
      <root>
        <mxCell id="WIyWlLk6GJQsqaUBKTNV-0" />
        <mxCell id="WIyWlLk6GJQsqaUBKTNV-1" parent="WIyWlLk6GJQsqaUBKTNV-0" />
        <mxCell id="A4LTRsrQjvw_CSVddsjn-1" value="&lt;div style=&quot;box-sizing:border-box;width:100%;background:#e4e4e4;padding:2px;&quot;&gt;&lt;b&gt;USF&lt;/b&gt;&lt;/div&gt;&lt;table style=&quot;width:100%;font-size:1em;&quot; cellpadding=&quot;2&quot; cellspacing=&quot;0&quot;&gt;&lt;tbody&gt;&lt;tr&gt;&lt;td&gt;&lt;br&gt;&lt;/td&gt;&lt;td&gt;nome_servidor&lt;/td&gt;&lt;/tr&gt;&lt;tr&gt;&lt;td&gt;&lt;br&gt;&lt;/td&gt;&lt;td&gt;situacao_funcional (ATIVO)&lt;br&gt;perfil_cargo (ACS)&lt;br&gt;perfil_und_lotacao (tipo_unidade)&lt;br&gt;und_lotacao&lt;br&gt;distrito ( de I a VIII)&lt;br&gt;equipe VARCHAR&lt;br&gt;cod_und_lotacao&lt;br&gt;cnes_und_lotacao&lt;br&gt;setor&lt;br&gt;turno_trabalho&lt;br&gt;&lt;br&gt;&lt;br&gt;&lt;/td&gt;&lt;/tr&gt;&lt;tr&gt;&lt;td&gt;&lt;/td&gt;&lt;td&gt;&lt;br&gt;&lt;br&gt;&lt;/td&gt;&lt;/tr&gt;&lt;/tbody&gt;&lt;/table&gt;" style="verticalAlign=top;align=left;overflow=fill;html=1;rounded=0;shadow=0;comic=0;labelBackgroundColor=none;strokeWidth=1;fontFamily=Verdana;fontSize=12" parent="WIyWlLk6GJQsqaUBKTNV-1" vertex="1">
          <mxGeometry x="-1040" y="-1620" width="220" height="230" as="geometry" />
        </mxCell>
        <mxCell id="A4LTRsrQjvw_CSVddsjn-4" value="Tabelas usadas" style="text;strokeColor=none;fillColor=none;html=1;fontSize=24;fontStyle=1;verticalAlign=middle;align=center;" parent="WIyWlLk6GJQsqaUBKTNV-1" vertex="1">
          <mxGeometry x="-780" y="-1680" width="100" height="40" as="geometry" />
        </mxCell>
        <mxCell id="A4LTRsrQjvw_CSVddsjn-6" value="" style="endArrow=none;html=1;rounded=0;" parent="WIyWlLk6GJQsqaUBKTNV-1" edge="1">
          <mxGeometry width="50" height="50" relative="1" as="geometry">
            <mxPoint x="-1090" y="-1130" as="sourcePoint" />
            <mxPoint x="-1090" y="-1680" as="targetPoint" />
          </mxGeometry>
        </mxCell>
        <mxCell id="A4LTRsrQjvw_CSVddsjn-7" value="" style="endArrow=none;html=1;rounded=0;" parent="WIyWlLk6GJQsqaUBKTNV-1" edge="1">
          <mxGeometry width="50" height="50" relative="1" as="geometry">
            <mxPoint x="-330" y="-1130" as="sourcePoint" />
            <mxPoint x="-330" y="-1680" as="targetPoint" />
          </mxGeometry>
        </mxCell>
        <mxCell id="A4LTRsrQjvw_CSVddsjn-8" value="" style="endArrow=none;html=1;rounded=0;" parent="WIyWlLk6GJQsqaUBKTNV-1" edge="1">
          <mxGeometry width="50" height="50" relative="1" as="geometry">
            <mxPoint x="-330" y="-1130" as="sourcePoint" />
            <mxPoint x="-1090" y="-1130" as="targetPoint" />
          </mxGeometry>
        </mxCell>
        <mxCell id="A4LTRsrQjvw_CSVddsjn-9" value="" style="endArrow=none;html=1;rounded=0;" parent="WIyWlLk6GJQsqaUBKTNV-1" edge="1">
          <mxGeometry width="50" height="50" relative="1" as="geometry">
            <mxPoint x="-330" y="-1680" as="sourcePoint" />
            <mxPoint x="-1090" y="-1680" as="targetPoint" />
          </mxGeometry>
        </mxCell>
        <mxCell id="A4LTRsrQjvw_CSVddsjn-10" value="" style="endArrow=none;html=1;rounded=0;" parent="WIyWlLk6GJQsqaUBKTNV-1" edge="1">
          <mxGeometry width="50" height="50" relative="1" as="geometry">
            <mxPoint x="-330" y="-1640" as="sourcePoint" />
            <mxPoint x="-1090" y="-1640" as="targetPoint" />
          </mxGeometry>
        </mxCell>
        <mxCell id="A4LTRsrQjvw_CSVddsjn-12" value="2 ° forma normal (2NF)" style="text;strokeColor=none;fillColor=none;html=1;fontSize=24;fontStyle=1;verticalAlign=middle;align=center;" parent="WIyWlLk6GJQsqaUBKTNV-1" vertex="1">
          <mxGeometry x="-530" y="-1070" width="160" height="40" as="geometry" />
        </mxCell>
        <mxCell id="A4LTRsrQjvw_CSVddsjn-16" value="3° forma normal (3NF)" style="text;strokeColor=none;fillColor=none;html=1;fontSize=24;fontStyle=1;verticalAlign=middle;align=center;" parent="WIyWlLk6GJQsqaUBKTNV-1" vertex="1">
          <mxGeometry x="-240" y="-430" width="160" height="40" as="geometry" />
        </mxCell>
        <mxCell id="A4LTRsrQjvw_CSVddsjn-21" value="" style="endArrow=none;html=1;rounded=0;" parent="WIyWlLk6GJQsqaUBKTNV-1" edge="1">
          <mxGeometry width="50" height="50" relative="1" as="geometry">
            <mxPoint x="-932" y="140" as="sourcePoint" />
            <mxPoint x="-932" y="-440" as="targetPoint" />
          </mxGeometry>
        </mxCell>
        <mxCell id="A4LTRsrQjvw_CSVddsjn-22" value="" style="endArrow=none;html=1;rounded=0;" parent="WIyWlLk6GJQsqaUBKTNV-1" edge="1">
          <mxGeometry width="50" height="50" relative="1" as="geometry">
            <mxPoint x="540" y="140" as="sourcePoint" />
            <mxPoint x="539" y="-440" as="targetPoint" />
          </mxGeometry>
        </mxCell>
        <mxCell id="A4LTRsrQjvw_CSVddsjn-23" value="" style="endArrow=none;html=1;rounded=0;" parent="WIyWlLk6GJQsqaUBKTNV-1" edge="1">
          <mxGeometry width="50" height="50" relative="1" as="geometry">
            <mxPoint x="540" y="140" as="sourcePoint" />
            <mxPoint x="-930" y="140" as="targetPoint" />
          </mxGeometry>
        </mxCell>
        <mxCell id="A4LTRsrQjvw_CSVddsjn-24" value="" style="endArrow=none;html=1;rounded=0;" parent="WIyWlLk6GJQsqaUBKTNV-1" edge="1">
          <mxGeometry width="50" height="50" relative="1" as="geometry">
            <mxPoint x="540" y="-440" as="sourcePoint" />
            <mxPoint x="-931" y="-440" as="targetPoint" />
          </mxGeometry>
        </mxCell>
        <mxCell id="A4LTRsrQjvw_CSVddsjn-25" value="" style="endArrow=none;html=1;rounded=0;" parent="WIyWlLk6GJQsqaUBKTNV-1" edge="1">
          <mxGeometry width="50" height="50" relative="1" as="geometry">
            <mxPoint x="540" y="-390" as="sourcePoint" />
            <mxPoint x="-931" y="-390" as="targetPoint" />
          </mxGeometry>
        </mxCell>
        <mxCell id="A4LTRsrQjvw_CSVddsjn-26" value="" style="endArrow=none;html=1;rounded=0;entryX=0.045;entryY=1.027;entryDx=0;entryDy=0;entryPerimeter=0;" parent="WIyWlLk6GJQsqaUBKTNV-1" edge="1">
          <mxGeometry width="50" height="50" relative="1" as="geometry">
            <mxPoint x="-960" y="-480" as="sourcePoint" />
            <mxPoint x="-959.9999999999999" y="-1080" as="targetPoint" />
          </mxGeometry>
        </mxCell>
        <mxCell id="A4LTRsrQjvw_CSVddsjn-27" value="" style="endArrow=none;html=1;rounded=0;entryX=0.045;entryY=1.027;entryDx=0;entryDy=0;entryPerimeter=0;" parent="WIyWlLk6GJQsqaUBKTNV-1" edge="1">
          <mxGeometry width="50" height="50" relative="1" as="geometry">
            <mxPoint x="430" y="-480" as="sourcePoint" />
            <mxPoint x="430.0000000000001" y="-1080" as="targetPoint" />
          </mxGeometry>
        </mxCell>
        <mxCell id="A4LTRsrQjvw_CSVddsjn-28" value="" style="endArrow=none;html=1;rounded=0;entryX=0.045;entryY=1.027;entryDx=0;entryDy=0;entryPerimeter=0;" parent="WIyWlLk6GJQsqaUBKTNV-1" edge="1">
          <mxGeometry width="50" height="50" relative="1" as="geometry">
            <mxPoint x="430" y="-480" as="sourcePoint" />
            <mxPoint x="-959.9999999999999" y="-480" as="targetPoint" />
          </mxGeometry>
        </mxCell>
        <mxCell id="A4LTRsrQjvw_CSVddsjn-29" value="" style="endArrow=none;html=1;rounded=0;entryX=0.045;entryY=1.027;entryDx=0;entryDy=0;entryPerimeter=0;" parent="WIyWlLk6GJQsqaUBKTNV-1" edge="1">
          <mxGeometry width="50" height="50" relative="1" as="geometry">
            <mxPoint x="430" y="-1031" as="sourcePoint" />
            <mxPoint x="-959.9999999999999" y="-1031" as="targetPoint" />
          </mxGeometry>
        </mxCell>
        <mxCell id="A4LTRsrQjvw_CSVddsjn-30" value="" style="endArrow=none;html=1;rounded=0;entryX=0.045;entryY=1.027;entryDx=0;entryDy=0;entryPerimeter=0;" parent="WIyWlLk6GJQsqaUBKTNV-1" edge="1">
          <mxGeometry width="50" height="50" relative="1" as="geometry">
            <mxPoint x="430" y="-1080" as="sourcePoint" />
            <mxPoint x="-959.9999999999999" y="-1080" as="targetPoint" />
          </mxGeometry>
        </mxCell>
        <mxCell id="A4LTRsrQjvw_CSVddsjn-54" value="" style="shape=image;verticalLabelPosition=bottom;labelBackgroundColor=default;verticalAlign=top;aspect=fixed;imageAspect=0;image=data:image/png,iVBORw0KGgoAAAANSUhEUgAAASMAAAC7CAYAAAAuYvi3AAAAAXNSR0IArs4c6QAAAARnQU1BAACxjwv8YQUAAAAJcEhZcwAADsMAAA7DAcdvqGQAACUKSURBVHhe7Z0PbB3Fncd/paDjQBW9+miC0qZ+rq+n0LuHSVqoFKe51HYg7WEsHW2jysmT7dKiiJxJDih/AnH+9KiuXIIVFLUFx3ISoVR3OpnQIyWJL5fGOZX2AuFdBWrr+gVXKKTgSpEOjgra3vxmZvfNzM7s7ntvn3eT9/ugF7x/3u7s7pvvzvx2ft993x8ZQBAEkTKXyP8TBEGkSqIto3feeQfeeust+MMf/iDnEATR6FxyySVw5ZVXwuWXXy7n2ElUjGZnZ+Gqq66CSy+9VM4hCKLRee+99+D8+fPQ1NQk59hJtJuGLSISIoIgVFAT4vSWKGZEEEQmIDEiCCITkBgRBJEJEg1gv/HGG3D11VfLqfi8++ZL8P39T8GPpt6CKy55F97+wF/AZ28rwJevvxouk+sQBHHhEkcbUhejt382Bg/sfxduvvMrcPNHrhAz330Dfvz9YTgAX4F/7L0W5FyCIC5Q4mhDut20d16GPUyIVj/81bIQIZddDZ/pfQDW/P5J+O5P3pYzCYK4mElVjM6fehbe/MIX4TPWps8VsKTnVjh/5L/gDTnHxUu7umDVTerncXhJLkuFcwdh402D8Mw5OU0QRCSpitGrpZfhz//sKjll4aprIf/OazAjJ8NYtG4fHHruCP+Mrvsl3JemIM3rhh3PDcMt8+Q0QRCRpCpGV3zgg/IvF+fh/P+yXpucisv8W++HdYt+CTPUMiGIC4ZUxah10adhpjglpyz84qfw34s+CYvkZHxeh1+/Iv9kvP70oLMLp3Xx7jrIvil54XHtO8/gNnadFst4N0zfDt+HtxxOw261m8bXL+9n9wtyvraPLtj4tL93ub2D8MxduIy6fMTFT7oB7E90wrLSbni8aAlSv/0yPP7dX8DNt36q4pbR60+PwjOLOuDTrJuElbrvWAeMql04TzSYGNz3q/XlZWsX+vNX3Q/wLTn/0N6FcGz3y2JZxbwOzzyyC1ofkdt67tuwVC556aSyj0duhVd2/6vetfzBBMD9uJy6fMTFT7pidO4lOHXuCnjz3+6FB0ePwo9n3oDzb74KPz7yJDx431Pwwa/fE7sSvrJ7jd/C4OLzWDfMZ0Lw02Mvwy1r8W/B/Fv74JYfTJYr/Ssz4DU65i9u4+u9dPJpWLTuNrhOzOYxoHvXXSsnqmPq116rpw2uWyz+um79neV9LG6HW8DoWv4tKyuJENEgpCdG547C0Dd/Ckse3A5DQ4/DvR1XwxvPPwsHfvif8OrlfwN37dwOvZ+IP8JIDWAf4kKEiO7aM/eXu0KrbroHnvEq/eI7WYsE4D4+3+sKvQ4zv2JdyI968lUr8+GWx/bBimNSLP2uHEPrvmG5CKJxSUeMfCG637/zX7XwOrjliwX4em8BvrysFa5+v5hfG/Pho4uuhXV7pUj5H6Xbg4KE8/Z2wLG1KEjzYeHH1ZaM4NxMtd00BAVJ7PtbcI8QJBSitTNQ8Mv0bdYyIojGZe7FyCJE9WM+fHoFwO5HlMC0wutPP14ODM9bCK3+n9fq8RsmHGM/kH8jfN2n4aQXiGbL/8kZUzoNu5XWEG6b89oMvLJoIfin4IVJahkRDc3citGcCpFg/q3D8K2P74I+vztU7irN/ygTqrXlbhI8IlpM+B0xVkkuY125ghYzaoN1j9xa7v4Flquw1tmvWGtIbovHs9a3sRbZbbAOlHKdBGoZEQ3NHOamvQrff/ApuOLv506IkoQ/lZvpg0MoJARBVETGctM+Bl/+5oUpRARB1J/0nqYRBEEoZMLPiCCIi5vsW4gQBEFISIwIgsgEiYoRvqwN35FEEAThgZqA2hBFojEjeqMsQRAmqbxRliAIolooZkQQRCYgMSIIIhOQGBEEkQkSH/RIEARhI2rQI43AJgii7tAIbIIgLhhIjAiCyAQkRgRBZAISI4IgMkEqAeyf/U8RfnjkMPzx3XflHDvvu+wyuLlrJfzVX+flHIIgLkTiaEMqYvTojkdh9Levwtnf/07OsXPN+/8E+j70Mbh7491yDkEQFyKZfZqGLaIoIUJwnajWU5lZGF9/PezkXvvi7yWLxWfw4CxfI4zisPfdSinCzsXrYVx9+eIFwOzB9dHn5fQOWLJ+nJ1Ngqg/2YwZNd0A3+u/A74qJ2Nxegy2tY7BhjYUlk441nUUTr3wIv8MwIk6Vqg8bHhhF/Sk4e2NYjFclBN1oG0jjLZugb1ViTRBVEb2xAiFaE0PfPjMs/CknBWH4vESPLQaY0uzMD3VDitubBILGPnuHihPEZWQX74G9h+vo+ARhCRVMcp/ZKH8S+IJUfE70PMfM3JmHIowMZaDFt46aYJlXQDbVu1gcy2cG4dB2X1bstixjtHNU7tv2J3Tu3/YTVO2o21f/a5cD1sz1mXmdhm4LdZNGuf7NMqK2+nfBzBWYMuwm4hlVruL5rS6jx2sraiiH6/W2mrrhN6xo/q+CaIOpChGN8CdX7oDxj8nBalqIWKcm4YzS1tggZxs6t4Fp/YA9GHFUmMeWLm3Azwsu298nUA3ByvmEMAmuc4LYwD9QggwztIHY373b7jbaG/h9ldNwIpD6ndVQdgHfcc7xbI9rMUx4pUNu3rl7zQPjZUr/8ktUFqO8zeytRRYFwq3AQUsT1Q3EY+pAGeGvK5rJ5SGJpVlerd2FApKPGkB5JaWYPoCi4kRFx4pitFP4Gtj4/CbPBOkrvbqhcgFVlZWsQ53TcBKT5DOTsMkq9wrvRYAtiympqUgeLwGpZOTrGUl11lcgP2AlXEWThwB2RV0wLYPQ0OKMORhLdO1Y897e1gDo4Py+9jiODnN9iZAodP3Jxcs3Qxra35vJDsm2AwP++KJ5WqXf5vL2NLVmwGO1DPORhBB0o0ZzTJB2scE6ZOfT1aIFJq6h+AhmIATXuXmLQmvFcI+u2zxJCYa6jq85YEi5XUFkwWFaGXpdrmvo/DQUrkgKbDlKP8kiKySfgAbBemxB2oTonkt0Oy3Mli3Y1h9HI0iIv+8pgXax56IeAyP3ZJ9MBJ47J2HjgLrZoU9vWLbx5aRGqfZy1pGajDdxmulSWjPyU7muRNwzCtvRTRBS+tkuRWmbmfeMlgB6lMxLJfXTWPHy5ZtVY63eGALQNcyKdL1E2GCUElFjHBkNQ5ojALXwXWjUeMaTdCzfLrcFWPdHtgjYyrzemB4T07pgtnGILHv78K4Tae/jhd3yg+yVssUBowd3w1sX9l3CLxb5O1v+zQ0x20Z8eCyF8AO2w47pk2b4Uy/V66jkPO7acHjxbiYHw87fRT2Fzr1eBVB1IGLJx0Eny5hcNiLyRCJgE8PJ5a/yMdvEUS1ZDYdpD6Ip0KlAao4iYECP9ICh61xNYKIT4OJEUEQWSWONqQfwCYIgmCQGBEEkQnIz4ggiLqT2ZgR+RkRRGOR2ZhRffyMEHyi5vYvUpNc+ccfwKgnqnrjdrz5ge1hDhr/rvk974O5bKIs6vwwvyStbJqHkLkPS8Ksy0+JJ+2Wl9k8mzRfI8e2cB3/e7hO5LELeIqLdixI+HnRyoPwY1DWD2xPxVImbZBq3Guirxf8PYn9mN+Nd37D9l/ZbyYSvj/j9+JhnNfyfqKOvX5kM2ZUjZ8RgqOOW9foiaYccYJHcuVkUJ52AWpempoCogxUXNpujKpWKSe4Hh5qh3Y/EdVLam2Hh/ykWdeQA/HD1sq2CeAE/3HgMhw4Wd7GqUMtMGIIRvtSNf+tTPHABCu/nIgJbmvb9rAK7xF17JjLl4Neqx+Scl4O4WDMkAqjJR6zzwAOaHWsz9FTeTDpVxew6GsS6Yd1+iicKayBM36icwVo6UiYSG1W+Di/mXigrU5voRTIJuA3iVXTMOCX40XomBHHMrdeYDrZE6Mq/YyQ2ecnoHn5Rp62MaFUgNmDQ/wE61n2TdAzGGP8zMkcDOCo6gPun38tzB58gmfTa2Wb1wM97EdYHBaZ9toP0hvlrZRnsjVnEeAiTEx1wIpWORmTydbbkzFU4zeGTtgQ5YeEqSpWVwB2A9m+BZrNEextG5n4BSuYi/wgE6SKjifaDwsr+YrVBVih5jxWBQq64dKQGOL6r13dYSQ9YypQjgm27gIhjjFdL7BUxSg5PyNE3Ik7WMXVDcFEtn1UflgobQWeBlJTk9lKWNmCPwwfzLHT3AY6LQLMRK6rBWBKzqgATCtxtlZiIm4M7Oce5YeEogUdsCyQMoM5cWv49TRpWpiDyZLndxBNZQZxEX5YspIvmyfWs7VIK0PkPKrXLhGw9Yb5hTwvURHN0PSeqGOvLymKUYJ+Rgi3nZUnWasAZqKnElfQmu/7hP8R/5gXw8vtqvQiqVYktrhOWBJqyDItMVjABcTvNghhHuj2HJ4qhLW+Hmatj9Ck4FDE3VcIia2yKecF/aVsI7wNjyqNgBhXQtQ1YVfb5YfFECIvkoibbjRbHUkQXb5oWKtyhLXe+I1MF83ZmVI5KdtC2LHXmxTFKFk/o+LxfdCLd2KOWgFMczAv1jEGvXKOQI01GEZmiKygcbsHArX/b0uYDTMuC1vGMCuqegdUhblKuPXKVJTDgQPj7htsmXjnhV2Dk46ujkVwNVpbggIWQrkCRl0Tic0Pi/2rtWTNVkfVtEPuGvlnZPn0ALO1tW60NlXRjNWqtB57/Uk3ZpSYnxHazgLs97PSr4c+nOYVwLDWqIGm7ttZ/34Ixs/KGTUTVraQZVjZA5WRtd4GRCyp7AeusyDXDmdm4p4Hub3t425BcIA3BmGHK68Ht8e1ddXYjcEZj0MxtndfsAsIIXd3HWwl7IPmhZVIVxnND4vbsqgtl07Yxqa9a1TZ+ZWcG4cR3zI5Duiy4ImVPcCN50czEVy1hU3LY+A2OvFshANeYHUm/QB2En5G/E5smKbhXVd6F+UHhUVG7TEfWXlGWGVICM/2Qyvb6R182rVsSb9dbDxLkT4e05DzFPhdUQ2WsoqwNcxvid0hMfg7wloD8cEbg2lO9yKMspaqtVXpjMehGLIWlWbby34uB9fDStYFHNAeRrjAVgQTDPnWmHiw7zj8sLgI+k8N5ecQXiNxTis+v/xpIQbpLS3xqhGtN/WJHH4Os3Jw0Wct/AF2Lfq0Fo93zO5jnwtSEaOk/Yz0LpoHdtW8u5Z4aoGPUf27NT4yH1BjFWrMKGR8B1Ye1q/3rMnCUe+ijjEb+HTMLNvxTlF5bMv6gVV0V/dC2Mn2aselIJ9E+cfJK0JIV4XBBZHd/WPjCJBiV23SGl/xRMcSj8PuwqEOOKacw5VHOuCwrRvto15H+Zhas5WJuiasPFY/LMfDBv40ULbg4pxftcUohy3oQhnjNxOG44EAdtW8FhE+YeRdMK8ci5lSrcbfjOvYxTbqDaWDEARRdzKbDkIQRGOR2XQQgiAIExIjgiAyAYkRQRCZgALYBEHUncwGsMnPiCAai8wGsOfazyjgkYP4vjxiue57A9ybRnwHc9m8MTC4fVu+kLqOh8iBC4xXMj1tnMPtxbGErhtrW0ouHv945ZfbD+SfsfX97QTLII7HtU3XfMS1PwH3c7KVhW3HPuYrWDb/GrvOC59vu34MHIBYdS4YkQTZjBkl7mcUjsjDUkYBsx9t35T+/vmKOR3ieaOMFscRzurbXHV0bxsxUM0QPXXkufOVQg6vJrb99kg3Ar0M5QF6rm0q83G0uuaNhPuzpCIwIRiZYsvkpI/zHKJIiddSeeXCEffNas6V47wk6f1EJEv2xKgOfkbRyFHA/EfP7rgjJXhok6tixyOu5w0fmRzTDgMzqivx8onDigE12z9hMD3FSHZtbrWYfeF16+qQU2Vc5xB9ntBwTh+5nIcNMV7gmaT3E5EsqYrR3PgZxUTmYe0dxoz322scAh/f88aeyuImcduKa3pgILR1VgOW1JDccrvZV8fCaSPFxnUORe6bzecoHsl6PxHJkaIYzZWfUXy4J9AYwGiNr8iO9LxR8pNqfnW0muvkiMeEezWx4+aJxC5rXZe/jmubynzb68al+PnOi9gVGyoEcs2c59D0OeKxHrk/9fhDzgu/zkl5PxGJkaIYzZWfUVxY92w76y4UajEVQ2J43sh4BnpHV9yCQ1T7EDU24hTRCK8mNsdt5eHy13FtU84/tNlpVVFuuYoucTCrPeQcmj5HPJlY7k/O4oSdF3V7CXg/EcmQbsxoTvyM2J01hqEU+mRj92zDYA2mYkiE541KNQZmxQNbKvDyqYCkrXXDzOj4vthxn8YHDpYuceg5dPscxQdjhEJ8Xd5PxNyTfgB7DvyMhKGUWumLsLNfbUlJk3J+B5U/1FhvyAgS5XmjU9m+8PF3zU/5nLCyoLXuCOseyTm14pvRBcRWei33bxE+2Qbh51CW0/A5qpgI7ydi7klFjObczwib8tgN8e+06ls3cLwKTitxC+5Z5ArqhvnNxPC8MalgX33ABNd8fK/GRizxIEFMryZ2ngZa43o1xdkm+ivZX32EQtW7dDOsDcTLYpxDvJ6GzxH3BlJbOJHnJcL7iZhzKB2EIIi6k9l0EIIgGovMpoMQBEGYkBgRBJEJSIwIgsgEFMAmCKLuZDaATX5GBNFYZDaATX5GyviYCvyMvG3x8rrGFPHtu8YbiTKZ2/Oxftd2bPp5EOVRy2qeI32/dk8h83jVfUaXQWBsI5DWE3JNakoBIpIgmzEj8jOSuLyE0JenZBlEySrjSIktk5MaWFGF9YbY3lHIzehnCVMjegvVWZS0qyOm5YBEvdK7/I9UysfLX4ZYiUDwhFnD42j5tC5WYdeESJ3siRH5GcWjNResVFyMO9g+beCrilXrDXbM3WosTlh2rF2dgEUJHyFdm08SfwPq1HTs72POXrPpcdTWo4le3GtCpEOqYkR+RlhBKvMz8sl1BioVr5DLWxzvRxdOBvo71hWw1YCWHTaXgWqocTv8WGKnasTxOIp/TYh0SFGMyM8IP+F+Ri4vIWSBn3kuwMpmy/Uqo71jXesCidagyAerV2V1+R+plI8Xu8lhx6JhehxZiLwmROqkKEbkZxTtZ+TyEpIooqtWtjDQuha3NwpMEL3jxO4dlLPXk6usOWjxyxzlqYQox7sJYKtTtAxMj6MAMa4JkTrpxozIz6i2ffHMcww4F3kXdaCCgDu6O/pC9vwETJ7cIlpM+Fm1hU17lRX9g0owXWkZsaUK4a2VUHiWvrffqDJEeBxVcE2I9Eg/gE1+RlXvC+GtmKFCDLdCdsxqiw+7NvwP0WpQn9rh5zBaf/AuYBO0tLKKrLhAcuFWWlIB8FF5f40PAbiAeC2rqDLIBxCGx9HswR18urJrQqRFKmJEfkYKVe9Lgh5EBda9iXQrZK2o3BP+trj/zyHWXTK6aB78aZZsOeUHj/KhD953V6JwG75Kk0Od5W33A+uSmd3KOP5HyvF65ZNLIsvQttEfUuCts5V1RXvmxbwmsXyhiHpC6SAEQdSdzKaDEATRWGQ2HYQgCMKExIggiExAYkQQRCZIL4B9+Dn443vvyTl23nfppXDzypsogE0QFziZDWA/+s/fhu/9/CV47f/eknPsLPjTK+Frf3kd3P0P98g5BEFciGQ2gI0toighQnCdqNaThvredfZRLUH81Afu2VNeR/MTwu8HEklVLx0ck6R8l30C42WMMqg5ZU5fJce4FtMnyDrOSFK9p5CYH9g2Hgc/Z+b3vA+WGc+Huh99XXFuwr6PiHMadmxEY5DNmNG8z8LoN74BX5eTceCVcdU0DCijbDtmHCObY/sJ2VDyp9Amo18REhQWowyn9uSgdFYut+DyEMLjWXmkAw4r2xoodYaagFXtKbS0HcD65lckDxvkdzCXrrwPM79MDB4N+iVFfB8HXVbhQUVcfGRPjFCI7voKfPjn/wLflbOikekcRgXJd0enI1TtJ4Ro+VOsBcBHHhuVtG1jSFa+sLUIeAixVslWyyhnMQo5Zi5bJZ5CJ3MwgCPUlXSLyonyS7JTvQcVcbGRqhhdl2uRf0k8IXr+n+AL49NyZgx4blpUbpadqv2EEDWVopoyuDyEzk7DpHVbIkcrrKWlYW43DExLUd0uKybCL8kKpmrU4EFFXFSkKEafhbvuuBf+vUcKUrVCxJidKUF7roL88Nh+QjaU/KntAA/L1otZBjWGY6/grFvj8BAKO54FuXY4MxO/uuuEeQqxlswmo9tZIXmnX5KDBDyoiIuHFMXoR9C34yn4zY1MkP6us2ohQuJYhGjE9hOy4cWMxqDXt9kIlsHzDcJ9WDESVFUPoajjaV4Y1flUqcBTiHXtHuaWJNWKXfm4Nb8kB7V7UBEXE+nGjM4xQXqMCdKnbqtaiDjcIqTyu2rATyjSpEslDxvUOEuFZQj1EHJuS2Sg566Rk1FU4SnU1H07NGMwO25X0IHql2Qn3IOKaDzSD2CjIN1/R/VChHAbDTNewbpBw1HxC9NPSJh0qS2D4nDBHQtS4yyyVREvZhLhIeQ6nvWd8f25q/YUkiI7MiGn41J0+CU5iPKgIhqOVMQIR1bjgMYocB1cNw5avIJ/WM1eHaMian5CTJx2jbGWQdmbB72YDzs9sT1TLxFnwS6KXobr+eP5gJdzLA8h83g64VjXUTgV4s+djKcQg5+TSfZfJTj8kuRSk0gPKqLhoHQQgiDqTmbTQQiCaCwymw5CEARhQmJEEEQmIDEiCCITpBfAJkN+gmgYMhvAfnTHozD621fh7O9/J+fYwVcV9X3oY3D3xrvlHIIgLkQyG8DGFlGUECG4TlTrSSA8cfwxLv4YGjk/kJZQhJ3+gMKI78aeLxA5aY78Ls27KGz7ugeSuk7gWNB3SF1eUaIqQWSHbMaMmm6A7/XfAV+Vk/FQ30uvJr+2Q3tkNrr7u5HzTU8jRvvSkiXHionMSIktk5Mc1/Z1yh5A4kWG/rGgEPHBheVtnBqYhpUuMSSIDJM9MUIhWtMDHz7zLDwpZ9XKioGYvj7VoHkaSVpzwf1xE7EOWCEnqwOz+72sfSZu27dA8x5jlHXbRjhcY7IrQaRBqmKU/8hC+ZfEE6Lid2p7977JNT0wULGjY0xsqR25zoCPUPEAE47lLVA6KWdUhfqqZtPMrEzFLgYEkQFSFKMb4M4v3QHjn5OCVLMQqe+lN/2fMdcLc85c1qqu78aYr3galVkgEnB950R0dNwczFGLKLNHOedsCGCTbAlhIupSR0Y+Zv1PTdenJUgQdSJFMfoJfG1sHH6TZ4LEuh61t4jU+IuZIIoYlh8aru9Gzdc9jTQUs7DZg08IR0exRCGqzAIvZjSqJpFG2Z20tlj2RxDZJd2Y0SwTpH1MkD75+eS7ZjZqtlY1CRO4PKzlsZsit1Yd6K5dGkTrzjOuF3YnNjMy9EqCSpwvCSIDpB/ARkF67IH6CxFHWquOsJaKnFMzIQLH3RuHCmVr1ZoRAtfHH+979iV6946/VWQoGfEjiLkkFTHCkdU4oDEKXAfXjYcafwl5Dxcal7XG9eqJs03d00iDm6SxrthqlxTFLLMCOjH2jknxa9vov5LI24Z4vZHbR4ggsgqlgxAEUXcymw5CEERjkdl0EIIgCBMSI4IgMgGJEUEQmYAC2ARB1J3MBrDJz4ggGovMBrDr5mfkeJ1ycVhdVoSdckyO+HiDBs357GNsDwcUmmOB+La99TUvIXN7ZOtBEGFkM2ZUpZ9R+5TldcrnxmFkii2TkwL1nfNqTpg6X74v3mlWJsRmJOd5DbHPJoATfCQ2LisA7Clv69ShFhgJSYYliEYne2JUg59Rc2vQxwfztJq7OuRUZeBbXUdbt8BeW/4XJr8OHYVhNe1iXg/0tGFrqcCXaWZpbNmwM4+NIIhUxShpP6PcciY6R05oXaW9QznoWDgdM/0jSH75Gth/3BQQ1VfIZBamWUvMuoysPQjCSYpilLSfEUOaqPktmdNHWQulYMnTUt85X00sB43NctBitfwIWRZl+0EQDUyKYpS0n5Gg3JIRntP21osaG4pOKm0P2HGgfYdhNesTtozhMkQjiAYn3ZhRPfyMuKXHEzB+Gj2nb3calsUDBW0fNC80Ba0JWloVozONkGWspbafTM8Iwkr6AezE/YzQtB5gWz96TtcyWBKHC3TCttYx61s78qs3Awx16j5Gp3fwadeyJf2lEDsRgmhsUhGj+vgZleGeP0ttntMeasxIfe+ZOr8TjnUdhVODDvHAp2MvjAH0l7ez5HinEC7bsn5gXUO3tSxBNDqUDkIQRN3JbDoIQRCNRWbTQQiCIExIjAiCyAQkRgRBZAIKYBMEUXcyG8AmPyOCaCwyG8BO1s9Iehl543n8j7DrQA8ibb7mUWR81/A8CrzH7Nw4DGrrGHltuNzbFvuogx7NcoS+Iw0HSCrr4kcbQCnLV15utyZxHbuYH8zJKw6Xt2P/bvBce+UKO8+u/XH4sZrLxH5c50jzkNL25TovstxKmVR0vysiLbIZM6rIz6gJenbJPLM9awAKYzLnrDzA0HtXPf94gxi5cHRCaUDOx8/y6XKlXtoOMDRkreQ2eIVbNQ0D3rbYp2NGeCHhMvFyxfKygVJneAXwjwM/YgClXjldnkw61mNntC/13kzrxv7ddnjokJzHPuro9PL6RwNv2cX9BV/FzURipMSWyUmPc5jKs0Z5lbeHEBXNQwr3BaoTguu8VOJ3RaRB9sSoBj+jSige2ALNe/TKBG095R/vyRwMxPYfElYlo0bSbb67B5rYj30rLtvF/pbzkfwgVtgnYopdHjYwQQpWzhrour2C/VcKpuS0w5kZRTxbc3BmxDCq46LTASvkpAf3oFq+EToK+zQBmz04xEfFax5SeDMa1M+ti6T9rohkSVWMkvYzik8RJsbWQIczXUQS8h59DUyALTjep392Giaty0RCbemsnIwkH6ictbEAegaY2G53OVnWgsXvKdfJRGcCTijix28Iy1ugdFLO4OB3c/za6F5SYR5S8aiH3xWRHCmKUR38jBxMDrEukYwj8K7OuWk4E8vKg911N22GM7b36CvMzrCuRsBmRBC2bEHOaD1URDxPpsCxq7Rt5E6WWx2xGft3J2Gb/25/PVZVXn8IYJPZdZTi57c02Q1hypI/eHoMtrVK8W7rhN4xr2tl+kQp8SHNGjjkvMT2uyLSIEUxqo+fkQ019sGb+JWYnM3rgYeHgs17laaFOZgs2bcWtgwJ2pOE0Q65a+SfMT2ZAsdukB90d//s31VjRrrgeOuPFhwWKoq4cNvermWB7lXx+D7o9d0W1Nag6ROFXVcswxj0yjmC8PMSz++KSIN0Y0b18DOKBf6w43d50AWgGYPZri4V2sn6d3AD5zLR7SiLSwQYaB1zuUvWQh7WMrGNCmZXglvgxL5GDhZ5V2wgII7YfQbYr7gd9OE0F48wD6kKSNTvikiS9APYifsZxYF1vwbYHbJf72bMHtzhCOiyuzAGs0cm5LQBaz0NsDt4n9ZdYHfeYTbtWsa9kmJWBnzytwoD7tGulNXQ1D3EK+jIlJxRM26Ba7qxA4B1jfyumAqPvalPEWXLZ0wE2oXIGT5RFZOU3xWRNKmIUb39jEzU2IcfX2jbCKcOdcAxP/5xPWyFglsc8I4Kk85AZ37wRTjcNQErvf1g3GS1eMoTXBbhlYSMFeS67LNqAlawrpFu8qbGRsxxSGWsxx4AxZl1J7VAsgs1ZuQeC8Q9pdgxBMrFxZl19Swmc3oXzQO7al6LSDxV1Hyi8JVQA+rTtOjzEu13RaQBpYMQBFF3MpsOQhBEY5HZdBCCIAgTEiOCIDIBiRFBEJmAAtgEQdSdzAawyc+IIBqLzAawyc/IPT6HY/oZeeOD+Hx9oKYP37djmXGcwX2L5eZ8LHNgXSyDcZ60soadX/axjocyjlfdJ3oNmd+xlUvzOAqMp7Ifn/UaEqmRzZgR+RnpfkaK/Qh6/9hSIooHJliZ5YRBcVgOsvT2DWrmOsPpHxQHNRfsRRiFgiEGbv8jDf94cZR1/PMuBMXwONoEcEIVsJqOj5grsidG5GcUymRrzlKpMAO+A1a0ykmNWZieatcSQnm55N+Iyz+oGvKDTJDUzPiKESOu41qr8IRbdrPRkoDnseuoXNckj4+oH6mKEfkZVeJn5NEZqFQiA74FwJpbJnOxVrm6Iy7/oOqpaTtMvEds1iJW4ngcJX98RH1IUYzIzyjUz0jNTTO6c/nVrEy+a6KobAPd7qNp6t7FurAgcrbMeIrTPygp3P5HGt7xYkKwlmsWhulxZKHux0ckRYpiRH5GiNPPSI0ZmQm185aVXRPVyhYGJgazbfGEXUWQ3P5BtVEWYLf/kYZyvB3HbcFmG6bHUZB6HR+RPOnGjMjPKL6fkYbIssd4VvF4yZoB74Lbhfj2r2H+QdFCamcWxkf2VWgap4PdKW+/4W6YUR5H4cdHZIv0A9jkZ1QdvMtRgL6pDlgWug1ZDjklujbyzwj/ICGkapC9CDv7bTYfHt5xjbmfmsUAWzNey4oLohqw5w8EynEi7LKC6XF0eoeYjjo+IlOkIkbkZ1Shn5F1LAwamLVDb2R8hQnv8mll3wWAPaK7FOkfxIR0GEXYP0cF/uTK7atkO654/kfq8fbBWPnpGLtOh9GoTS7jMSVZfg6W0fQ4Ot7Jyxjtj4TE84Ui6g+lgxAEUXcymw5CEERjkdl0EIIgCBMSI4IgMgGJEUEQmYDEiCCITJB4AJsgCMLGnD5NIwiCqBbqphEEkQEA/h8/T8QSgc2TSwAAAABJRU5ErkJggg==;" parent="WIyWlLk6GJQsqaUBKTNV-1" vertex="1">
          <mxGeometry x="-1190" y="-1880" width="291" height="187" as="geometry" />
        </mxCell>
        <mxCell id="A4LTRsrQjvw_CSVddsjn-55" value="USF perfil_cargo" style="text;html=1;align=center;verticalAlign=middle;whiteSpace=wrap;rounded=0;fontStyle=1" parent="WIyWlLk6GJQsqaUBKTNV-1" vertex="1">
          <mxGeometry x="-1200" y="-1920" width="300" height="30" as="geometry" />
        </mxCell>
        <mxCell id="A4LTRsrQjvw_CSVddsjn-56" value="" style="shape=image;verticalLabelPosition=bottom;labelBackgroundColor=default;verticalAlign=top;aspect=fixed;imageAspect=0;image=data:image/png,iVBORw0KGgoAAAANSUhEUgAAAS0AAACgCAYAAABZujpcAAAAAXNSR0IArs4c6QAAAARnQU1BAACxjwv8YQUAAAAJcEhZcwAADsMAAA7DAcdvqGQAABpeSURBVHhe7Z0LdFXVncY/Ux0ZfFCNKbhUJCFlFZkGCEpxiIPIS3QIWVMQ2oFk8ZBWHo2iqBSUILSx1iIMlE6RxwpkWluwE4I1JUABSaqi8kgruBQSiDhCY9rBhSwYfMze5+xz7z73nvvMjdx97/db68C5+7zv48v//z97f+eS1pZTX0Djsy8uQVZWFs6fO4ezZ8/gi88/V0sIIeTiE1K0CCEkGclQ/xNCiBFQtAghRkHRIoQYRcaZM2egT4QQksywEE8IMYqkEa1z587hk08+wefsYkEIUWRkZOCKK65Ahw4dVEsSiVZrays6deqESy+9VLUQQtKdTz/9FKdPn0ZmZqZqSaJCvIywKFiEEB2pCYHZF+8eEkKMgqJFCDGKjPm1f7fn3l6N4XffY88TQkiS4o60xvxMzZjDhY8OonLpY5g2cyYe/MH3MG3es6jc34ILajkhJLUwOj08+5cKzHn2DVw3ZgFWrViBpf/xS6wqK0Hu28swp/IQzqr1CCGpg7mide4Q1lZewPgnp+LuGzuqRsFlWRgw4YeY+Nlq/HIvZYuQVMNY0Tr91sv46N6xGKDplZ+O6Fc0Gqe3/QktqiUUB5cPw8gR+rQCB9Wyi8KpasweUYotp9RrQogLt2hteljNJD/Hmw7hums6qVcedLoFeec+QLN6GY6e0zegZus2a1o3/T08fjGFq3MhlmxdhlGd1WtCiAtjC/Edr/qqmgvFaZw+I7JF9Spauoyei+k930MzIx1CkhJj08PcnrehueGIeuXBu2/gzZ690FO9jJ6TeP+wmhWc3FwaMnV0pZYPVostFftWuLbZIvex/IC9zEr/3PuxjuEsxwGs1NNDa33/cVbuU+2uYwzD7M2+o6v9VWPLg3IZU02SWphbiO8xFHc0rcSKBo9i+9lDWPHLd3H36FtjjrRObl6HLT2H4DaRnskf/6SdQ7BOTx0dcRGi8fjRWf5lxV197SPnAk+r9pr1XbFz5SF7WcycxJby5cgtV/va+lMMVEsO1mvHKB+Nwys3uVPal3YAc+VyppoktchYPPwae67XVNROjT0uuWicOoi3TnXER797FPPWbcdrzS04/dFxvLZtNeY9/it89Xtzov6xHl450RexWCK1tBBdhGC8sfMQRhXLeZsuoydh1Et1fnE43AwniOmS38da72D9ZvScPga97WarRvXo9FvUi/g48r4TRfVB73x7rvesmf5j5BdgFAJS2n8V50qxIimImZHWqe0o+9Eb6DdvMcrKVuDRIVloef1lvPCHXTje4U48+NxiTOjheVvRE70QX2MJlsROE7fM9adgI0fMwRZHHPJniggHeNxqd1Kwk2g+KlLXmxyZaytdMGrpBgzeqUTVl0IKXGmjPC9C0gPzRMsnWHN9kUSnrr0xamwJvjehBOPuyEXWV+z2ttEFN/W8BdPXKzHzTVq6JYVLtq0fgp3FUri6oGt3PTKyOdUcb3ookcJlH/tpzLGFSwpWcTNKfOf0UxFpEZIemCVaHoLVfnTBbYOBleVagV3j5OYV/gJ3567I9c3e4q4vCYGpeEnNS6x1N6PeKaiL5c+ErHkdwEotupL7tvigGYd7doXvLdhXx0iLpA3miNaXKlg2XUYvw9Pdl2OSLw3zp2hdbhKCVuxPz1BuR2ByG7uvl1omUsgSV02rD6aXj/annUHLdUS0d1REV2pfVr1tVh8R4Y3BdGjnVQ9GWiRtuOR401GXc+k/XnHVRXEubWlpCXPc4/jNvF+h4w++PMFKJNZdyOZJqJGCQwiJiUBtyLjyyiuhT8nJzRj3IzMFixCSWMztp0UISUuS5sEW4dNDQki6EpQeqv8JIcQIKFqEEKNIGtGSD2WUzzgjhBAHqQlSG3QueeC/3vnCGn8oH2zx8O9QU1NzUWpLfMI0ISQQzydMu0Tr1YGomXILC+KEkKSFNS1CiFFQtAghRkHRIoQYRdIU4mUHMkII8ULXpKQpxLNHPCHEC/aIJ4QYDUWLEGIUHDBNCElqmB4SQozGuEjrL39uwB+21eKLCxdUizeXXHYZ7h42HP/0zTzVQggxkUBtME60nl3yLNb97Tg+/Oy8avHm+q9cjknX3oxHZj+iWgghJmJ8eigjrEiCJZHrRIrG/LSialZfPGc9s8Ke75dvT6XVrdYa4WhY5mwbKw14Ln8WqvSHrBpAa/WsyO/LgSXoN6tKvJuEJJaMM2fOQJ+MJ7M/Vk3+Pqaql1FxoAKLcivwUB8pQEOxc9h2vLVvvzVNwZ52/OHl4aF9y1F0Mbzvpagsa1Av2oE+s7EudyHWxyXmhITGkAdbRIkUrIlF+Nqxl7FaNUVDw+4mPDFe1r5a0XikAIO/lWkvEOQVFsH/isRC3qCJqNzdjsJI0hJj7x7m3dhVzSkcwWr4TxT9sVk1RkMDdlRkI8eKdjJxxzBg0cglotWDU1UoVWljv/wQ6wSkl3raKNNId9op00NtP67969uq9WR05LkscL8CuS+RnlVZxww4V7mfyRuAihKxTKan8pz1NDXwtX6MJSL21HFfryt66zMUEyq2u49NSBsxVLT6Y+Z930fVXUq44hYswalGHBuYgxvUy8zC5XhrLTBJ/gD1mowUgcXAkypttNYJSq/kD7gMmK/W2VcBTLYFQ9aBJqHCl3YuKwyI3+T+R+7A4Bp9W104NmDS7qH2srUiglnjnJtMMf3bdCur8ItE/UI0DZLts8VaGiJ1k/tAiTyfSOmpvKYSHCtzUuahaCqr05a50+l1KNHqXTcge2ATGg2r2ZHkxlDR2otpFVX4a54QrmEF8QtWKOSPWvwAa4ftwHBHuD5sRJ0QgeFORCEjlSONSjgcPkBTfZ2I1NQ6+SWohPzRtmLPNqgUNARi/ygr0wQkD8VC/3a+7hxhItaVqu1lBFPfKI5mIwXRfTy1YOACFLf5+bDimrAAT/pEVp5XgZoPXCaWjl8AbGvPOiBJd8ztXNoqhGuDEK5e9yRWsDQyC8vwBHZgjyMCVmTiRDViWu5V7xLioq9jRTJSzJwUNLFIwRredL861nY8MVAtSBQyElWzhCQD5oqWRArX0h+2TbA656CbL2oR6c4y/Ta9FBs1e30OCiqej9A9QaZDG7AmqDtAHoaUiPQu3N06sX8Zael1pPUi0tJvCnjxQVMdCrJVcntqD3Y65xsTmcjJrfNHdfp+Ot+BwdDvAsrzctJDcb1i2VPa9Ta8sBAYdocS8/YTa5K+ZMyv/bs9J61p7r7Hnk9iZE932XE0EnIduW5k9LpLJooGNfpTQJFuYa2q+XQuwrK12Vrq59WHS2y/XNaVhvrWcepieaUiCjoiC98htg3av3bsMFjpmHO8xY3oFm2kZRXJnUJ8uP2Ia5q/AMcmO+e1Hdm+9DD4emXdzlevO7AdlSVD3fU0QtqIcX5a7TKMR95Nk0Vup2ZEEoK8W7pj0H6r/xsh8RI0jIcmgBL7LljTFP7AEob8Q7AmB7WedT9Cosf4YTztg0xzKFgJRd6BpWCRdoCiRQgxCrdobXpYzRBCSHLCQjwhJKkxvqYlBUv6aZX/b1PYSa4j1yWEpBbGiVbi/bTknUOnD5I96YOc/UNk1OTqIBow4NlC7s8/ZtDlPaUNeA7cV/jjOLgHRwevF/5a/LjXC+5vZh8ncFsv37Cw1xe0j+jOL/C90NeJeA4KfXB6sK+X9/VZ5x+uA3Bbcb0//u9NuOslwWRYqaGk11TUTu1pz5tMPH5aKMATvoHK/ruI8ss0vCzbNSxHDghu0xdbGwrkHlwszsI3KFlMIfuMuYcJWefj+lF6X4tORM+wA9txrGQijvkGZceAa6iTHPQdKIqRz0/iey9qZMfWwD8M4bAFaU229l7OB/boQtCW64sXOSB+MvyfXU0OGrVziv9604/UunsYp5+WJ+JL9pQlWG6HBLtne6ThPNEh/abqmpxhz/GRVyqEKyazvcieYdJfbPD4EgzWx13GhXSgCHCeiBU5jCgGp4jW6uctRwqXi0bnIhRp4pi464sBOeBeHx0QcE4+YrzedMRY0Uqcn1YIAr9kPgLG6SUBsZntRfAME607jgzBHZ3t9dp+nfa4yx3xpjyWq+z9EYcz2dhuGuHHayb6+oIJ9k0TqGFTgWlsEDFdb3piqGgl0E/LQreTsetRrc1NalkwN2Q7Y+/aQiuq1mzAhEF+WazTxvBF/HKHJPhaAgnpGSawIhU14DnzW0PawWYm8vlJfO/FZMdVNhoiD9Bu7+tzhi7Zqel2DN7mDIKXUad8bV9XYN0qvutNTwwVrUT7ael1FnuQcmbXbLUswViDlOUP1q4r6TUdvaYVZBIYAZ/Tg8e1eOLlGSb+dUUqlsNDIlKoAmRfr2ajPD//e1EGLI62OB3JdLDt1+cZRfmQqTdQ6RtcPhSL6uvQ9KFaLKRSjrxwan36NcV3vemJuQ+2aG8/LcuKxssqWP/ix+HMqRWqYxUmb+yIrVvX+Pbl8gyzLGn0SMj+0TkplIwwjzXHGJecqsIan511PMg0zn/c8OcQIXWPcH3RIGuI4T8/940GOQXfbBBRl3Sf9Uzp3ddLgjH7wRaJ8NMKReciTJEeWK70Sd6yF190X83B/pEsesH/5WutLsMiyJqJamhXnPOxnyQUHWKbEJ5hra/vALRoz5pqpGWNXUiX0WedXlS3blaEqSGJ5aUjF6Lb2gC755iQfyTqfKIc6Rwcix1XpHJgifU60vW1neDvgw91Dg6hyw/u6yXBGJceJt5PS6L/9fWH/fKvqpU+qXb7L7P4S6rVHAJ9sqwuEnEOFK7TalrBfYschJA666gU0909wvta/IgUxdMzLCB1crDuZqlCukgpa8ua/Me3BCkgxfOlv3K57XnvFtRI52fjfy8C0uhI5yB9yVT65RxD2g491CeK65Po5x/UBy8ygd8H3z76lCB7jdMmvifbhqBW+9xCXi8Jgo/FjxUVPdRZaUCYmhEhJCEEaoNxokUISS+MH3tICElvKFqEEKMw7sEWhJD0hn5ahJCkxviaFv20CElvjBMt+mlp6wStF/5a/LjXC+4rlVx+WiHHKFrHi9CXKvCc9P5vIba3jx9iv65twnzWPtzrOFjHCNkXr62E+nyje/+TndQrxNNPy/NadIzy05JTzRDsHOkhorubMKGkyeOJ3gHo56R1/A23fcHAJg9nCvGjX9MklqmXcSM7umZjQkyWQtET/vON7v1PZtyiZfqDLeinFQWG+WlJZC93aY7nElHbYqZ4fLxODRG2z80OFm05djF3iHhf2oi1n6F4KCZLoWiJ/Pmajlu0xvxMzSQ/9NPyk9J+Wg6BjgwyGpQWM/E6UUTaPntoUHvDCwvRbVCOb6xmvMgxkN2kJZHlseU1KD9a3OmeHYlG+nzNx9D0kH5aoQm+lkBM8NMKj52m2dFEFOKqjye0Uvtotr8BRVOytcHPUswXoLjN6VQD1osIfoi1n7YIuhSsMmC+k+rJVNwWqnCfb2Le/4uLoaJFP61AUs1PyxtlcSPTK81JI6K46jUtWSuMdnstEtLFvE2ICK9Si+BDR8leUZSOdOfQBagEldBskjw/X0lb3v/kwNwHW9BPS2FHbKnrp6WQNsTIEe+4uGKRXtXVL/Q7VcgB7PXRi2v02+ehuEwW6huswvmUBHxeDbs3uCO/yfK11/fMMQy0J++CufumjJcIuT7fFMHsu4f001Lnk8p+WgLZzUDaEM+XBWX7j4Z+B0xOteI8PH2sgohteysKKysR77FXfTNWRIpZESg0+7FOfM8i3gENQv7B9Nou9OebKhgnWvTTSjc/LTFZj95SxwlI7RykuHhHxgHEur31x8v9mYcj7GcYkBo6WHeRY64dykhM3pkNPF6oz1dtlgLQTytWVPRAPy1CvhwCtYF+WoSQpCZo7KGxD7YghKQlZj/YghCSdph995AQknawEE8ISWqML8Q/u+RZyysrkj2N7PIw6dqb8cjsR1QLIcREggrx6n9jSC4/rYBtfcsCfa+cMV6B7cGDWvXHrgf31bKP5923KfK+CUkFUq+m1VY/LWmBogaeOnj6XMn+WvlD0TRFtctpUKM2AFXv+az359La5aBWnzDZorMmWzvWfGCPPuZMdozMnehh9SK3lZ0I1XZyqsnBGkMHxBISjtR6sEUi/LSsHuCRxxNaNiVCJFy9vfsUxdbZVA7IrW+EdNSyBuQKcXSNR+ws9qft37Y0mR3kDNCwrMTa1nUu0oNqre5SQEhq4I606KcVcpiHG3sMmW0vkghCDKFxIdexLU3czgDBpm8+5KDvI40qkiMkNTA0PWxHP63FwJMBYwf18WRWPelUI44NtB0HQqOPEfSuL8noyh6LJge1RnBCkC4HzqBdl3lcmG0756CbiuQISRUMFa328tOqEOlasI1HkM9VVGKg17R0lwO/mA3fNgS1Vo0sssWNtDTxGwbq5nERto0oroSYhbmF+Hbx08rDQ1HVgWxbkPgcJzUx80V0kSycZToKVE52Ire+mCRfWylimG2lq0BujitqJMR03KJl2oMt2sNPq0+JZTUT/tFKmSiaMlGIiPvuXGv1krjv1uWNl75VQ93HPbDEfm1ZmuhPuZGTiAor7AdshNrW8qCK0lKFEFMwrhDfPn5aOo4g+etQnh5J0s5WPdrKWfYUSrS7h3pNK4rny8m7feqRW842/XYPte4IulNDB5kiqgjLa1vdg4qQFIKPxU9CZAfTSZbDZRsdPwlJAYKG8ZgmWulCw7JZaBzPSImQoGE8xj7YIlWxetqLSMt69qBqI4T4oHMpISSpCYq01P+EEGIE9NMihCQ1gdpAPy1CSFITlB6a9mCLxPtpSVuXwLGB0rdK7zjq9qry9bmSHTi19tDPKiSEJIrUe7BFXH5a4ZACpntVbUd2syZxek/1OB/SSgiJntQqxCfCTysI6aKg29BkoqiQdTJCLhbGila7+WkFYTsq+B1GCSEXE0NFK9F+WuHJK92P2mE7MFzWrVwe8YKKEn9NK3AZISThGCpaifbTikxm4XKrbrUOQqR0cdJrWo5/PCGk3TC3ppUwP63IBnw6eaXSEsZxDSWEfNmY/WCLhPhp2SZ6uvFfa3UZFvl84hvwnB5ZSatlNUsI+fJxR1pp6qeVV7rdMv5zalPDy7Kxztd9IQ/F2c/761Yjd2BwDS1jCLlY0E+LEJLUBA3joZ8WISSZCRrGo/4nhBAjcIuWaQ+2IISkHcYV4gkh6Q3TQ0KIUSRVIZ4QQrxw3T1MFhNAQgiJBqaHhBCjoGgRQoyCokUIMQqKFiHEKIx7sAUhJL3h3UNCiFEwPSSEGAVFixBiFBQtQohRsKZFjOJXb/0Jj1X/Gp/8X+SnjJvMFf9wOX5S+B18t98/qxY30gxz966dOHv2rGpJTTp27IhBdw52mXlStIhR3LRgVsoLloMUrvcXLlev3Px8+TJ8e8x96HL99aolNTn54Yd4cdNvMWNWqWoR6aHRD7YgaUe6CJYk3LXKCCvVBUsirzEwmnTXtOinRQhJcliIJ4QYBUWLEGIUFC1CNG4eMBW7Hl+Kv5Wvsqb/mb8QqwZcZy8smI2m8qWoKpAvrsOM+8V6ixZiWU9rafJy8lX8YsYI3Pr1XPT4ej5GLtqFj9WixNOCjVNz8fSb6mU74BYtPtiCpDM9i/Gbe/ujB5qxestqTPttFbaduw5j7p0VJEw3D5uKeTnAK9uWo/SwakxGPtiI+0cIIf56Gar27sObezZievfzMPl2BgvxhChmFOSjR0YzKp9fgkf/tBeb9r+MknV1aMi4HoUFw9RagquEuP1LDs6/93sUvfKRakxGzuO1tWU4Om411j94O2685mpc3aU7Rn13BGSnphMvzsDI/nb0NW7BVhEjAfufyUXJj1diXmEvq31m1QlrT3JfR18swzhr/Vzc+vP9Vtuh1VMxsLdo6z8WT9U46zqcwEYnwpPLa21LdfsYSzBT7Ov+F2O3WWd6SIiix1UdgdZmPNqqGiStv8ZB8brTVU73gsvQ+7YC9Di9F9PWblNtycohvLrpPIbfdTsuVy06WXeVo2bvEbz7zkaM+PPT2KQixn3Hs/DAf7+Nd38/Ay0LNmD/Z0Ke6stR9NQJjHlBtL93BG/O6Gu1PfzXKajZJ/axazb+4ZklqHXlnVkYsXgr3hTrv1t5N/aVbxRnZPNq49fw+KtH8Py3Y+8TStEiJCYu4PynF4AOV6NHpmpKYs7LLk6X2vOBnD++FU/NKETRPROw8uj7OP2J3T5g+J248Stipkc++p49iiMiGDpUX4nz46ZgbI5f/mRby+5yFI8V+5hQjteuOYITjWqh5DMRnf2xDDP/rRAjp/wcR0+c9qWlg0aOsI8RBxnWk3gkvaaidmqyVxQJaT+aPxFilNkVz+hilPkd9Bav//o3/6/xnboqvIJvYF5JMbSkMQm5Eb3uAmpfd+IbjY+3YmHJ2xiwuBpVW6vx2G2qPRyXdlAzfvo+sAZVvxP7UNPkPmqB4OPaMhQ33I4fb6xGzca5GKDa2wojLUIUP3vldbz7eVdMmPR9PNy3P8b0vQcVkwqQ9/mH2Fpfp9YSfL4Npa+8g/NZBVh1/zDcrJqTjywMf2A6Ll/6EOa9eAgtf/8YH3+sYp2zYv7aq5F1tZj/YBdq37CbQ9H9m4W4vGYzak+qBkH3W0Zg90vVOBTiVuR5cYysa76Gq0VEdaJ+K15T7W2FokWIw+H1GPf7vWju8E3Mu28qVt1XhGGXvo/Vm5aj9D21juL4K0swbf9H6JRThIp7VZeIJOTyPrOxfsN9OPfCBAzsn49b+92OkfO3oqXLnRg7cBeKv9ELRb9oQXf/eGRPrh5Zjt/8+wksHKG6TazeL9rK8HyPP6C4n2zrhYFz7GK+Q9bAsbj9jxPQo3chftHSHfmqva1wwDQximvnTlNz6YHsK+bFT39SjjmPzVWvUpvAa2WkRQgxCj7YghBiFBlXXnkl9IkQQpIZpofEKKQxXroQ7lqlo6c0yEt15DXKa9VhIZ4YBe2WbWi3rEHRIoQkM0wPCSFGQdEihBgFH2xBCDEI4P8BF3XB0ymANU0AAAAASUVORK5CYII=;" parent="WIyWlLk6GJQsqaUBKTNV-1" vertex="1">
          <mxGeometry x="-840" y="-1870" width="301" height="160" as="geometry" />
        </mxCell>
        <mxCell id="A4LTRsrQjvw_CSVddsjn-57" value="USF setor" style="text;html=1;align=center;verticalAlign=middle;whiteSpace=wrap;rounded=0;fontStyle=1" parent="WIyWlLk6GJQsqaUBKTNV-1" vertex="1">
          <mxGeometry x="-870" y="-1920" width="300" height="30" as="geometry" />
        </mxCell>
        <mxCell id="A4LTRsrQjvw_CSVddsjn-58" value="" style="shape=image;verticalLabelPosition=bottom;labelBackgroundColor=default;verticalAlign=top;aspect=fixed;imageAspect=0;image=data:image/png,iVBORw0KGgoAAAANSUhEUgAAASAAAACICAYAAABHuza3AAAAAXNSR0IArs4c6QAAAARnQU1BAACxjwv8YQUAAAAJcEhZcwAADsMAAA7DAcdvqGQAABUqSURBVHhe7d0PcBRVngfwr6grhyWuxkgoMJAQuQXOAEERL0FECCG6hNTJH9cLSYUAIn8uiIIgKkFZ46qLpIK4IpAKoVxccC+AGskfw59EAeVfdhdcDAlEOIgBr6AOjhzK3nvdr2d6JjOZkEzoTub7qZpy5nVP94Sq+fre636/ueEfAvyorq4OwcHB6hURkc5TNnRQ/yUiuu4YQERkGdsMwa6cPYSP1n+InZUX0anDFVy67V48PC4FEwcG42a1DxG1XZ6ywRYBdOmvuXhx/RWMnvUURnfvpDdeqcPuj7KwAU/h9aS+UK1E1EbZcw7o8mGsFeHz5CtTnOEj3RyMIUkvYtLPq/H+3kuqkYjaE8sD6Py+z3D28fEY4rGL0wmDEsfifNGXqFMt3hzKjkV8nPmxAofUNkvUbsHcuHRsrVWviagBywPoRPVh3HXH7eqVB7f3ReTlU6hRLxvTZ0YeCrYVaY+cGd9hgZUh1CUBy7ZlYUwX9ZqIGrA8gDrd9kv1zJvzOP8/YkSmXjVVyNiFmNHnO9SwB0JkW5YHUESfB1BTUaleeXD0a3zTpx/6qJdNdwbfH1FPhTOb070Oz1yGb3O2iHcq+1e4vGerPEb2QX2bNsRyPY52DmM7DmKleQim7e88z8r9qt3lHLGYu9lxdnW8Ldg6R27jcI7aH+snoXuPxNDqlVhR4WGi+dJhrHj/KEaPvf+ae0BnNudga58ReEAMgeQXObV0BHLMwzMjKEQALDg227ktOdTRHr8QeEO1F6wLRenKw/q2a3YGWzOzEZGpjrXtLUSrLYfKTefIHIsjKze5Dhs/KQEWyu0czlH7Y30A1R7CvtpOOPvn+ViUU4zdNXU4f/YEdhetxqIFH+KXT89r8hfvyMpJjp6EFjjLExAivvxflx7GmGT5XBcyNhVjPilzftGP1MDoXIREDdD2O1S+GX1mjEN/vVmb05k/o6960TyV3xu9mwHoH6U/6z97lvMcUTEYA7dh46/FZ2XwUDtlbQDVFiPjt19j0KKlyMhYgfkjglG35zNs+Hw7TnR8BHPeWYqk3k2/A8g8CV2ghY+kD8W2LnQOc+Lj5mGr8UWPmiV6HsACrd0Y5pxBzTExPLzHiKyWCsGY5XkYXqoC0jFME1yGZvJzEQUO6wLIET4LHf+Hvz20P8aMT8HTSSmYODQCwTfq7S0Tgnv69MWMdSqYHA/TkEaGkGxbNwKlyTKEQhDay9xj0dXWNHcIJskQ0s/9BubpISTDJ7kGKY7P9JboAREFDmsCyEP4tJ4QPDAcWJlpmlw2ObN5hXNyt0soIhxP+7rOx4iwyP1EPZe0fTej3JhMFtvf9DpHdBArTb0eeWzNqRoc6RMKxz/B/jL2gCigXP8Auq7howsZm4U3emUj1THUcQ6DQu4R4ZTsHAIhU+8Zyffo9xKpbWKYluIyBzQAMzLHOod2DbabiV7YMdHrUcfS5qdmDxA9r3GYAdPnKgd7QBRQrvNasBP4aNGH6PQf1y98/Em7mlaTigIZHkR0TWywFqwHJv62bYYPEfmftVfBiCigsSQrEV0X9izHQUQBiwFERJbxewB16NABP/30k3pFRAQtE2Q2uPP7HNDly5dx8eJFXL16VbUQUaCT4XPrrbeiY8eOqkXn9wAiImoqzgERkWUYQERkGQYQEVmmVW5EJCLyxP1GRN4JTUTXBe+EJiJbYQARkWUYQERkGQYQEVnGsknov/6lAp8XFeIfV66oFs9uuPlmjI4dhX+5L1K1EFFb5CkbLAugt5e9jZwfT+D0z/WqxbOuN96C1Dt74Pm5z6sWImqLbHUVTPZ8fIWPJPfx1UtyOof82QPxjlZvXn8+KEp/pG85p+3RmIos473XqgLvRM1GvvkHBduAc1tm+/53ObgMg2bni39NIv+z7xxQ0GCsmjwdU9TLJjmYi9cicvHsABkmI1EaW4x9+w9ojzTsasUvUSSe3Z+NRCtqXcuAyKpQL1rBgLnIiViCdc0KZqLG2TOAZPhMSsTdxz/DatXUFBU7qvHyk3Ku6ByqKmMw/MEgfYMQmZAI5yu6FpHDJmH9jlYMOQpYlgdQZPdQ9UwxwqfiD0j8okY1NkUFSnLDEK71QoIwNBZ4LX6ZaPWgNh/pamg2KMrLPm5DOPPQTA7VXId2cghmOo7L8c3vVfvJXovHbe7HFeSxxBAoXzun22eVx5mcB+SmiG1yCCg/s3ko6P7afI5lok9o5vr3uvSqBoxEUm6x67mJ/MDiABqMWROmI/9RFULNDh+htgrHo8PRTb0MSsjGvrVAqvwymecw5Bd6KfCKGppp+zQYwsgvYwbwktpnfy4wWf/yy3mTVOQ6hnZZCW79Knn8+BIMLzC/1xwCeUjdMVLftlb0LNYYn00O45zv6ZmR6/zCly9B9TDZPlfsZSKGR/IYSJGfx9cQUP5NKTieYQxLR6I6o8y0zXXImoMU0/xQN4RFV6Oqjc1xkf1ZHEB7MS03Hz9EihCKjWl++Hgjv6Diy1QYW4JRRgidrkKZ+EKPMv5PL3sQlVUqBAynUF1eJnpQap+oFKyH/AKew64iqGGeF+L4yMgwhUEkkkWWle4xzjAJOenq/bJnUV4lzqaT4eZ6PrUhejGSW/xbiOJvwmK84ghM+bli1HP3bWLrk4uBotacNyOywxzQORFCeSKE+j3m3/AxCUrIwMsowS7jC631GIzehnhke5ofEkFh3kfrYchgMoZ5/iXDZ1T1VHWuYrwcrTb4i+whqqdEdmGPSWgZQstfbFn4dAlHT0dvQgwpssyXjmVwqKddwxGT+4GPS+ZyyJGHNQ0uUUdiRIoYQjV21UkcX/aAzPMu60QPyDwh7smp6jLEhKkBZO0ulBqf95oEITyizNnbMh+ny1AMh/lqlvxcxhBM/L1i26umv7diwxIgdqgK5tYLXgpslgWQvMNZ3mToi9xH7uubeZ4iCInDqpzDLDGkwVo1R9IlEVlrw0zDK0/3CIn3Z8t5mJGOfYx5pMh00TuplJO+Xt7b4PimczdCG/IY51tahZ5N7QFpE8TGJHRjxxF/00uLcXyy8bmKEeYYgjX8e+U8l2N+62Ax1qeMdJ1/IvKD9rUUQ14VkhO8xhwL+YW86lcy7IB2fxVRc9lqKUbr0K/mVKfxy+I3MtTXhKPQ4zwZUdMFQAARkV15ygZ7TEITUUBiABGRZaydhC7chn/4+B35G266CaNHxbEeEFEbZ6s5oLd//xZW/f0QTv3vRdXiWbd/uhXT/rk/nn9unmohorbIVnNAsufjK3wkuY+vXpKTvAqmFniaFnxqjxbWtGl+raDWIT9Pw/uXiNoW+84BdXkYOS+8gKfVyyYx1QPSmJdctLPLyJHpbgtWidogewaQDJ85T+Huv2/E+6qpKZz1gAKBviykxEa9MqJrZXkA9Q8LV88UI3z2vInH86tUY1OY6wE1QtXXqTBWnmtDM1OdnEarC5r2Mw3ptOHZFr0GkDYschn+mUpxuJ/brYxrwzpDgnyP41iuw0AWCqO2zuIAehhzps/Hp4kqhJodPoJbPSCNtkZKfXnNwVK+BGuQoQ3NZLnRUVHFGKEN1XKR1MhC1fWTjf3095kXb64v0msMaeunVBkQ7SHXhW3wfO7CDDi2eawz5Ku2kFxY26CUCFHbYXEA7UTqsg/xw4MihJ4Y2fzw8cY8B2ReHxbtrH3TLSwGMRkpaqGlXNCqPfEoaa2zIJh7vZykNPMckz4ZrgWfe70h07mDHhyhAsRLnSGftYWI2jbr54BqRQgtFyF0/zj/ho9lnOvRtOArWAxjzbl3LHdBgckek9AyhBZOb1n4uNQDah3m+RbXejlmMkxiENZVf3VuTwmMqjveeakz5Ku2kKzuGBHORaLUZlkWQPIOZ3mToS9yH7mvbx7qFpvngLwWn2+6JBQ7judSL8eFPkwy6gG9Wh3WhB6QeJenOkM+agtV7MhD0rBAuepH7VH7WooRUPWA5BU5OSnuVqieyKZstRSjdQROPSB5yX5NWLGXXhiR/QRAABGRXXnKBntMQhNRQGIAEZFlrJ2E9ndReiKyLVvNAb297G3k/HgCp3+uVy2eyZ/lSb2zB56f+7xqIaK2yFZzQLLn4yt8JLmPr16SzrT8wXi41wCSl+nVzX5y7VWDejqm7fplbvPxzAtH1bkaLFwV73E7p/PnlvUHa/gQOdl3DihoMFZNno4p6mXTxOBlx8JN9ZvwLboB0fTzzPKGwKXmcIlBTGVKo0XKtJ9bLhqBQuMY4pFWPdLHinuiwGHPAJLhMykRdx//DKtVU3MEJWSjMKPaw08sN4P8BVK3pR7D0xbj+Bq3XpahNh+vZoQhx60Qmn7Hs6+fhiYKDJYHUGT3UPVMMcKn4g8t+614Ra44N69abzZPP0/cNRFpbmU5HOQ6LY8/Z6z/fnv1afWSKIBZHECDMWvCdOQ/qkLIz+HTcnlINeZvvCzx0EujmheM6s7VVCMmzKU6kYMsAXK8xg+9MqI2zuIA2otpufn4IVKEUGxM64VPs1eMqzkgWVIjt9jLXFIknnUvOiYEhYahrNr72vyeoVxCQWT9HNA5EUJ5IoT6PdYq4aOVzfDQE/EVEC66JOKVxuaSBqRoK9ldJqRltUKPoaUXHzPKdRAFMntMQssQWv6i/8MnayBSK50VCF1oAWGeDK7AO5O9l7cISpjqcailC0LiS3JC+gMcVy0ytNJkjR+Xy/L6YtnXIqaaqhwSBS7LAkje4SxvMvRF7iP3bZoyU+0cvWaP15/j8VBr53hGcSOr6FWdH5dL8SYycCLKXIqPRaYbtwIY5xiJ0tjiACkXQuQbl2IQ0XVhq6UYRBRYbLUUg4iIAURElmEAEZFlOAlNRNeFrSahWQ+IKLDYahK61eoBtaRGj6wHZGp3POQx5e+0u9cXksd2lPtoWI/IfGe0fs6GpUEqssx1hgR5HtMxGtQ0ImpH7DsH1Mx6QC2q0TNgrmorxsvRptpCTb5x0PSegsU4Ptk1cGKiqxv++qmZDJ/4Egw31TTal1bVwppGRPZlzwBqQT0g29To6TIUw91/qTV2aiPnET2opUvQ0/TLpxoRin6raURkM5YHkN/rAdmlRk/tLpRiBIa6rPnqhsQ098qKBvmb8pMwwsNSkGtaOEvUhlgcQK1TD8i6Gj2mtWhLgVc8rUMTPZocTwFZW4Xj0eEiojyQC2crqzgXRO2OxQHUWvWArKrRY8wB5SKpvAS7vAzp9IDMdZ3X6RKOnm4lX100u6YRkX1ZPwfUWvWA/F2jx1dAuPAcgE5yZb37hHQ3hEXnocTDBPq5PSUeaxoRtXX2mIRulXpA/q7RoweEeTK4IiulYZ1og6cANAlKyNAmpNdUqgb5edMmYf1k18vy2lW7jDCkeappRNTGWRZArVMPyI1fa/SIgMiWQ6eRjnt0ZLGzQq/vMwLF2yV0uV0MCcvVS0neBlAwAqWmmkb6LQNzPYccURvHpRhEdF3YaikGEQUWWy3FICJiABGRZRhARGQZBhARWaZVJqGJiDxp9atgRERNxSEYEVmGAURElmEAEZFlGEBEZBkGEBFZhgFERJZhABGRZRhARGQZBhARWYZ3QpMlPtz3JV7Y8kdc/D/fv47blt36i1vwu4Tf4KlB/6paXMnCfDu2l+LSpUuqpX3q1KkThj0yvEFhQQYQWeKexbPbffgYZAh9vyRbvXL1bnYWnhg3ASFdG/tFhLbvzOnT+HjTnzBzdrpq0XEIRpYIlPCRGvtbZc+nvYePJP9GT708BhARWYYBRESWYQARkWUYQNQu9RgyBdsXLMePmau0x3+9tASrhtylb4yZi+rM5ciPkS/uwsypYr/XliCrj7bVvs58hfdmxuH+eyPQ+94oxL+2HRfUJv+rw8YpEXjjG/WylTCAqP3pk4yPHh+M3qjB6q2rMe1P+Si6fBfGPT67Qcj0iJ2CReHAzqJspB9RjXZ0aiOmxolQvTcD+Xv345tdGzGjVz3a+lQ+A4janZkxUejdoQbrP1iG+V/uxaYDnyElpwwVHboiISZW7SXcJoLq4XDUf/cpEneeVY12VI/dazNwbOJqrJvzELrf0RmdQ3phzFNxkAVOT348E/GD9V7RxMXbRN8FOPBmBFJeX4lFCf209ln5J7UjyWMd+zgDE7X9I3D/uwe0tsOrpyC6v2gbPB6vFhj7Gk5io9HzktsL9bLL+jmWYZY41tSPm1eKmQFE7U7v2zoB52ow3/kz/uL1H3FIvL79NuOS983o/0AMep/fi2lri1SbXR3GV5vqMerRh+Dpx8yDH81Ewd5KHP12I+L+8gY2qZ7c/hPBeOY//4ajn85E3eI8HPhZRE15JhJfPYlxG0T7d5X4ZuZAre25H9JQsF8cY/tc/OLNZSh0GdsFI27pNnwj9j+6fjT2Z24Un0j3VdXdWPBVJT54onk/RsoAogB1BfU/XQE6dkbvINVkY/XyFpqb9Ofu6k9sw6szE5D4WBJWHvse5y/q7UNGPYLuN4onvaMw8NIxVIpOyuHy9aifmIbx4c4ok211OzKRPF4cIykTu++oxMkqtVH6WfSavsjArH9LQHzauzh28rxj6DcsPk4/RzMxgKjdqbkogiUoFG+agyXoN+gvXv/wo/Ob9W1ZPnbiV1iUkgzTwMyGuqPfo0DhHqPfYXJhG5ak/A1Dlm5B/rYteOEB1d6YmzqqJ04Dn1mD/D+LY6jH5AFqg3ChMAPJFQ/h9Y1bULBxIYaodn9gAFG78/ude3D0aiiSUqfjuYGDMW7gY8hNjUHk1dPYVl6m9hKuFiF957eoD47Bqqmx6KGa7ScYo56ZgVuWP4tFHx9G3X9fwIULqg9ySTy/szOCO4vnp7aj8Gu92Zte9yXgloLNKDyjGoRefeOw45MtOOzlklq9OEfwHXejs+jpnCzfht2q3R8YQNT+HFmHiZ/uRU3H+7BowhSsmpCI2Ju+x+pN2Uj/Tu2jnNi5DNMOnMXt4YnIfVxdprehWwbMxbq8Cbi8IQnRg6Nw/6CHEP/SNtSFPILx0duR/Kt+SHyvDr1c13o20Dk+Ex/9+0ksiVOX8lcfEG0Z+KD350geJNv6IXqePpFtCI4ej4e+SELv/gl4r64XolS7P3AxKlnizoXT1LPAIO9F8uSt32Vi3gsL1av2zdPfyh4QEVmGAURElmEAEZFlGEBkCVmkK1A09rfKSoGyWFd7J/9G+be64yQ0WYIlWXUsycoAIiKLcAhGRJZhABGRZRhARGQZBhARWYYBREQWAf4fl1i07UHxPf0AAAAASUVORK5CYII=;" parent="WIyWlLk6GJQsqaUBKTNV-1" vertex="1">
          <mxGeometry x="-441" y="-1860" width="288" height="136" as="geometry" />
        </mxCell>
        <mxCell id="A4LTRsrQjvw_CSVddsjn-59" value="USF turno_trabalho" style="text;html=1;align=center;verticalAlign=middle;whiteSpace=wrap;rounded=0;fontStyle=1" parent="WIyWlLk6GJQsqaUBKTNV-1" vertex="1">
          <mxGeometry x="-460" y="-1920" width="300" height="30" as="geometry" />
        </mxCell>
        <mxCell id="A4LTRsrQjvw_CSVddsjn-61" value="&lt;div style=&quot;box-sizing:border-box;width:100%;background:#e4e4e4;padding:2px;&quot;&gt;&lt;b&gt;equipes_asu&lt;/b&gt;&lt;/div&gt;&lt;table style=&quot;width:100%;font-size:1em;&quot; cellpadding=&quot;2&quot; cellspacing=&quot;0&quot;&gt;&lt;tbody&gt;&lt;tr&gt;&lt;td&gt;cnes&lt;br&gt;seq_equipe&lt;br&gt;ds_equipe&lt;br&gt;nome_referencia (nome da equipe)&lt;br&gt;qtd_avaliacoes&lt;br&gt;asu_pontuacao&lt;br&gt;asu_zona&lt;br&gt;cnes_nome&lt;br&gt;ano_quad&lt;br&gt;unidade( de I a VIII em algorismos&lt;br&gt;romanos)&lt;br&gt;numero_quadrimestre&amp;nbsp;&lt;/td&gt;&lt;td&gt;&lt;br&gt;&lt;/td&gt;&lt;/tr&gt;&lt;tr&gt;&lt;td&gt;&lt;/td&gt;&lt;td&gt;&lt;br&gt;&lt;br&gt;&lt;br&gt;&lt;/td&gt;&lt;/tr&gt;&lt;tr&gt;&lt;td&gt;&lt;/td&gt;&lt;td&gt;&lt;br&gt;&lt;br&gt;&lt;/td&gt;&lt;/tr&gt;&lt;/tbody&gt;&lt;/table&gt;" style="verticalAlign=top;align=left;overflow=fill;html=1;rounded=0;shadow=0;comic=0;labelBackgroundColor=none;strokeWidth=1;fontFamily=Verdana;fontSize=12" parent="WIyWlLk6GJQsqaUBKTNV-1" vertex="1">
          <mxGeometry x="-795" y="-1620" width="220" height="230" as="geometry" />
        </mxCell>
        <mxCell id="A4LTRsrQjvw_CSVddsjn-62" value="&lt;div style=&quot;box-sizing:border-box;width:100%;background:#e4e4e4;padding:2px;&quot;&gt;&lt;b&gt;equipes_cnes&lt;/b&gt;&lt;/div&gt;&lt;table style=&quot;width:100%;font-size:1em;&quot; cellpadding=&quot;2&quot; cellspacing=&quot;0&quot;&gt;&lt;tbody&gt;&lt;tr&gt;&lt;td&gt;cnes&lt;br&gt;seq_equipe&lt;br&gt;ds_equipe&lt;br&gt;nome_referencia (nome da equipe)&lt;br&gt;turno_atende(manha, manha/tarde,&lt;br&gt;tarde)&lt;br&gt;criacao_equipe (antigas, novas)&lt;br&gt;data_desativacao&lt;br&gt;id_tp_equipe&lt;br&gt;tp_equipe&lt;br&gt;sg_equipe&lt;br&gt;&lt;br&gt;&lt;/td&gt;&lt;td&gt;&lt;/td&gt;&lt;/tr&gt;&lt;tr&gt;&lt;td&gt;&lt;/td&gt;&lt;td&gt;&lt;br&gt;&lt;br&gt;&lt;br&gt;&lt;/td&gt;&lt;/tr&gt;&lt;tr&gt;&lt;td&gt;&lt;/td&gt;&lt;td&gt;&lt;br&gt;&lt;br&gt;&lt;/td&gt;&lt;/tr&gt;&lt;/tbody&gt;&lt;/table&gt;" style="verticalAlign=top;align=left;overflow=fill;html=1;rounded=0;shadow=0;comic=0;labelBackgroundColor=none;strokeWidth=1;fontFamily=Verdana;fontSize=12" parent="WIyWlLk6GJQsqaUBKTNV-1" vertex="1">
          <mxGeometry x="-1040" y="-1380" width="220" height="230" as="geometry" />
        </mxCell>
        <mxCell id="A4LTRsrQjvw_CSVddsjn-63" value="&lt;div style=&quot;box-sizing:border-box;width:100%;background:#e4e4e4;padding:2px;&quot;&gt;&lt;b&gt;gerentes&lt;/b&gt;&lt;/div&gt;&lt;table style=&quot;width:100%;font-size:1em;&quot; cellpadding=&quot;2&quot; cellspacing=&quot;0&quot;&gt;&lt;tbody&gt;&lt;tr&gt;&lt;td&gt;ds (distrito)&lt;br&gt;cnes&lt;br&gt;unidade (nome da unidade)&lt;br&gt;gerente (nome do gerente)&lt;br&gt;cargo (gerente de unidade de saúde,&lt;br&gt;só tem esse registro)&lt;br&gt;cpf(tem ponto e traço)&lt;br&gt;contato (telefone)&lt;br&gt;email&lt;br&gt;&lt;br&gt;&lt;span style=&quot;color: rgba(0, 0, 0, 0); font-family: monospace; font-size: 0px;&quot;&gt;%3CmxGraphModel%3E%3Croot%3E%3CmxCell%20id%3D%220%22%2F%3E%3CmxCell%20id%3D%221%22%20parent%3D%220%22%2F%3E%3CmxCell%20id%3D%222%22%20value%3D%22%26lt%3Bdiv%20style%3D%26quot%3Bbox-sizing%3Aborder-box%3Bwidth%3A100%25%3Bbackground%3A%23e4e4e4%3Bpadding%3A2px%3B%26quot%3B%26gt%3B%26lt%3Bb%26gt%3Bequipes_asu%26lt%3B%2Fb%26gt%3B%26lt%3B%2Fdiv%26gt%3B%26lt%3Btable%20style%3D%26quot%3Bwidth%3A100%25%3Bfont-size%3A1em%3B%26quot%3B%20cellpadding%3D%26quot%3B2%26quot%3B%20cellspacing%3D%26quot%3B0%26quot%3B%26gt%3B%26lt%3Btbody%26gt%3B%26lt%3Btr%26gt%3B%26lt%3Btd%26gt%3Bcnes%26lt%3Bbr%26gt%3Bseq_equipe%26lt%3Bbr%26gt%3Bds_equipe%26lt%3Bbr%26gt%3Bnome_referencia%20(nome%20da%20equipe)%26lt%3Bbr%26gt%3Bqtd_avaliacoes%26lt%3Bbr%26gt%3Basu_pontuacao%26lt%3Bbr%26gt%3Basu_zona%26lt%3Bbr%26gt%3Bcnes_nome%26lt%3Bbr%26gt%3Bano_quad%26lt%3Bbr%26gt%3Bunidade(%20de%20I%20a%20VIII%20em%20algorismos%26lt%3Bbr%26gt%3Bromanos)%26lt%3Bbr%26gt%3Bnumero_quadrimestre%26amp%3Bnbsp%3B%26lt%3B%2Ftd%26gt%3B%26lt%3Btd%26gt%3B%26lt%3Bbr%26gt%3B%26lt%3B%2Ftd%26gt%3B%26lt%3B%2Ftr%26gt%3B%26lt%3Btr%26gt%3B%26lt%3Btd%26gt%3B%26lt%3B%2Ftd%26gt%3B%26lt%3Btd%26gt%3B%26lt%3Bbr%26gt%3B%26lt%3Bbr%26gt%3B%26lt%3Bbr%26gt%3B%26lt%3B%2Ftd%26gt%3B%26lt%3B%2Ftr%26gt%3B%26lt%3Btr%26gt%3B%26lt%3Btd%26gt%3B%26lt%3B%2Ftd%26gt%3B%26lt%3Btd%26gt%3B%26lt%3Bbr%26gt%3B%26lt%3Bbr%26gt%3B%26lt%3B%2Ftd%26gt%3B%26lt%3B%2Ftr%26gt%3B%26lt%3B%2Ftbody%26gt%3B%26lt%3B%2Ftable%26gt%3B%22%20style%3D%22verticalAlign%3Dtop%3Balign%3Dleft%3Boverflow%3Dfill%3Bhtml%3D1%3Brounded%3D0%3Bshadow%3D0%3Bcomic%3D0%3BlabelBackgroundColor%3Dnone%3BstrokeWidth%3D1%3BfontFamily%3DVerdana%3BfontSize%3D12%22%20vertex%3D%221%22%20parent%3D%221%22%3E%3CmxGeometry%20x%3D%22-795%22%20y%3D%22-1620%22%20width%3D%22220%22%20height%3D%22230%22%20as%3D%22geometry%22%2F%3E%3C%2FmxCell%3E%3C%2Froot%3E%3C%2FmxGraphModel%3E&lt;/span&gt;&lt;/td&gt;&lt;td&gt;&lt;br&gt;&lt;/td&gt;&lt;/tr&gt;&lt;tr&gt;&lt;td&gt;&lt;/td&gt;&lt;td&gt;&lt;br&gt;&lt;br&gt;&lt;br&gt;&lt;/td&gt;&lt;/tr&gt;&lt;tr&gt;&lt;td&gt;&lt;/td&gt;&lt;td&gt;&lt;br&gt;&lt;br&gt;&lt;/td&gt;&lt;/tr&gt;&lt;/tbody&gt;&lt;/table&gt;" style="verticalAlign=top;align=left;overflow=fill;html=1;rounded=0;shadow=0;comic=0;labelBackgroundColor=none;strokeWidth=1;fontFamily=Verdana;fontSize=12" parent="WIyWlLk6GJQsqaUBKTNV-1" vertex="1">
          <mxGeometry x="-670" y="-1380" width="240" height="230" as="geometry" />
        </mxCell>
        <mxCell id="A4LTRsrQjvw_CSVddsjn-89" value="&lt;div style=&quot;box-sizing:border-box;width:100%;background:#e4e4e4;padding:2px;&quot;&gt;&lt;b&gt;servidor&lt;/b&gt;&lt;/div&gt;&lt;table style=&quot;width:100%;font-size:1em;&quot; cellpadding=&quot;2&quot; cellspacing=&quot;0&quot;&gt;&lt;tbody&gt;&lt;tr&gt;&lt;td&gt;&lt;br&gt;&lt;/td&gt;&lt;td&gt;nome_servidor&lt;/td&gt;&lt;/tr&gt;&lt;tr&gt;&lt;td&gt;&lt;br&gt;&lt;/td&gt;&lt;td&gt;situacao_funcional (ATIVO)&lt;br&gt;perfil_cargo (ACS)&lt;br&gt;perfil_und_lotacao (tipo_unidade)&lt;br&gt;und_lotacao&lt;br&gt;distrito ( de I a VIII)&lt;br&gt;equipe VARCHAR&lt;br&gt;cod_und_lotacao&lt;br&gt;cnes_und_lotacao&lt;br&gt;setor&lt;br&gt;turno_trabalho&lt;br&gt;&lt;br&gt;&lt;br&gt;&lt;/td&gt;&lt;/tr&gt;&lt;tr&gt;&lt;td&gt;&lt;/td&gt;&lt;td&gt;&lt;br&gt;&lt;br&gt;&lt;/td&gt;&lt;/tr&gt;&lt;/tbody&gt;&lt;/table&gt;" style="verticalAlign=top;align=left;overflow=fill;html=1;rounded=0;shadow=0;comic=0;labelBackgroundColor=none;strokeWidth=1;fontFamily=Verdana;fontSize=12" parent="WIyWlLk6GJQsqaUBKTNV-1" vertex="1">
          <mxGeometry x="-240" y="-1620" width="220" height="230" as="geometry" />
        </mxCell>
        <mxCell id="A4LTRsrQjvw_CSVddsjn-90" value="1° forma normal (1FN)" style="text;strokeColor=none;fillColor=none;html=1;fontSize=24;fontStyle=1;verticalAlign=middle;align=center;" parent="WIyWlLk6GJQsqaUBKTNV-1" vertex="1">
          <mxGeometry x="20" y="-1680" width="100" height="40" as="geometry" />
        </mxCell>
        <mxCell id="A4LTRsrQjvw_CSVddsjn-91" value="" style="endArrow=none;html=1;rounded=0;" parent="WIyWlLk6GJQsqaUBKTNV-1" edge="1">
          <mxGeometry width="50" height="50" relative="1" as="geometry">
            <mxPoint x="-290" y="-1130" as="sourcePoint" />
            <mxPoint x="-290" y="-1680" as="targetPoint" />
          </mxGeometry>
        </mxCell>
        <mxCell id="A4LTRsrQjvw_CSVddsjn-92" value="" style="endArrow=none;html=1;rounded=0;" parent="WIyWlLk6GJQsqaUBKTNV-1" edge="1">
          <mxGeometry width="50" height="50" relative="1" as="geometry">
            <mxPoint x="470" y="-1130" as="sourcePoint" />
            <mxPoint x="470" y="-1680" as="targetPoint" />
          </mxGeometry>
        </mxCell>
        <mxCell id="A4LTRsrQjvw_CSVddsjn-93" value="" style="endArrow=none;html=1;rounded=0;" parent="WIyWlLk6GJQsqaUBKTNV-1" edge="1">
          <mxGeometry width="50" height="50" relative="1" as="geometry">
            <mxPoint x="470" y="-1130" as="sourcePoint" />
            <mxPoint x="-290" y="-1130" as="targetPoint" />
          </mxGeometry>
        </mxCell>
        <mxCell id="A4LTRsrQjvw_CSVddsjn-94" value="" style="endArrow=none;html=1;rounded=0;" parent="WIyWlLk6GJQsqaUBKTNV-1" edge="1">
          <mxGeometry width="50" height="50" relative="1" as="geometry">
            <mxPoint x="470" y="-1680" as="sourcePoint" />
            <mxPoint x="-290" y="-1680" as="targetPoint" />
          </mxGeometry>
        </mxCell>
        <mxCell id="A4LTRsrQjvw_CSVddsjn-95" value="" style="endArrow=none;html=1;rounded=0;" parent="WIyWlLk6GJQsqaUBKTNV-1" edge="1">
          <mxGeometry width="50" height="50" relative="1" as="geometry">
            <mxPoint x="470" y="-1640" as="sourcePoint" />
            <mxPoint x="-290" y="-1640" as="targetPoint" />
          </mxGeometry>
        </mxCell>
        <mxCell id="A4LTRsrQjvw_CSVddsjn-96" value="&lt;div style=&quot;box-sizing:border-box;width:100%;background:#e4e4e4;padding:2px;&quot;&gt;&lt;b&gt;equipe_asu&lt;/b&gt;&lt;/div&gt;&lt;table style=&quot;width:100%;font-size:1em;&quot; cellpadding=&quot;2&quot; cellspacing=&quot;0&quot;&gt;&lt;tbody&gt;&lt;tr&gt;&lt;td&gt;cnes&lt;br&gt;seq_equipe&lt;br&gt;ds_equipe&lt;br&gt;nome_referencia (nome da equipe)&lt;br&gt;qtd_avaliacoes&lt;br&gt;asu_pontuacao&lt;br&gt;asu_zona&lt;br&gt;cnes_nome&lt;br&gt;ano_quad&lt;br&gt;unidade( de I a VIII em algorismos&lt;br&gt;romanos)&lt;br&gt;numero_quadrimestre&amp;nbsp;&lt;/td&gt;&lt;td&gt;&lt;br&gt;&lt;/td&gt;&lt;/tr&gt;&lt;tr&gt;&lt;td&gt;&lt;/td&gt;&lt;td&gt;&lt;br&gt;&lt;br&gt;&lt;br&gt;&lt;/td&gt;&lt;/tr&gt;&lt;tr&gt;&lt;td&gt;&lt;/td&gt;&lt;td&gt;&lt;br&gt;&lt;br&gt;&lt;/td&gt;&lt;/tr&gt;&lt;/tbody&gt;&lt;/table&gt;" style="verticalAlign=top;align=left;overflow=fill;html=1;rounded=0;shadow=0;comic=0;labelBackgroundColor=none;strokeWidth=1;fontFamily=Verdana;fontSize=12" parent="WIyWlLk6GJQsqaUBKTNV-1" vertex="1">
          <mxGeometry x="5" y="-1620" width="220" height="230" as="geometry" />
        </mxCell>
        <mxCell id="A4LTRsrQjvw_CSVddsjn-97" value="&lt;div style=&quot;box-sizing:border-box;width:100%;background:#e4e4e4;padding:2px;&quot;&gt;&lt;b&gt;equipes_cnes&lt;/b&gt;&lt;/div&gt;&lt;table style=&quot;width:100%;font-size:1em;&quot; cellpadding=&quot;2&quot; cellspacing=&quot;0&quot;&gt;&lt;tbody&gt;&lt;tr&gt;&lt;td&gt;cnes&lt;br&gt;seq_equipe&lt;br&gt;ds_equipe&lt;br&gt;nome_referencia (nome da equipe)&lt;br&gt;turno_atende(manha, manha/tarde,&lt;br&gt;tarde)&lt;br&gt;criacao_equipe (antigas, novas)&lt;br&gt;data_desativacao&lt;br&gt;id_tp_equipe&lt;br&gt;tp_equipe&lt;br&gt;sg_equipe&lt;br&gt;&lt;br&gt;&lt;/td&gt;&lt;td&gt;&lt;/td&gt;&lt;/tr&gt;&lt;tr&gt;&lt;td&gt;&lt;/td&gt;&lt;td&gt;&lt;br&gt;&lt;br&gt;&lt;br&gt;&lt;/td&gt;&lt;/tr&gt;&lt;tr&gt;&lt;td&gt;&lt;/td&gt;&lt;td&gt;&lt;br&gt;&lt;br&gt;&lt;/td&gt;&lt;/tr&gt;&lt;/tbody&gt;&lt;/table&gt;" style="verticalAlign=top;align=left;overflow=fill;html=1;rounded=0;shadow=0;comic=0;labelBackgroundColor=none;strokeWidth=1;fontFamily=Verdana;fontSize=12" parent="WIyWlLk6GJQsqaUBKTNV-1" vertex="1">
          <mxGeometry x="-240" y="-1380" width="220" height="230" as="geometry" />
        </mxCell>
        <mxCell id="A4LTRsrQjvw_CSVddsjn-98" value="&lt;div style=&quot;box-sizing:border-box;width:100%;background:#e4e4e4;padding:2px;&quot;&gt;&lt;b&gt;gerente&lt;/b&gt;&lt;/div&gt;&lt;table style=&quot;width:100%;font-size:1em;&quot; cellpadding=&quot;2&quot; cellspacing=&quot;0&quot;&gt;&lt;tbody&gt;&lt;tr&gt;&lt;td&gt;ds (distrito)&lt;br&gt;cnes&lt;br&gt;unidade (nome da unidade)&lt;br&gt;gerente (nome do gerente)&lt;br&gt;cargo (gerente de unidade de saúde,&lt;br&gt;só tem esse registro)&lt;br&gt;cpf(tem ponto e traço)&lt;br&gt;contato (telefone)&lt;br&gt;email&lt;br&gt;&lt;br&gt;&lt;span style=&quot;color: rgba(0, 0, 0, 0); font-family: monospace; font-size: 0px;&quot;&gt;%3CmxGraphModel%3E%3Croot%3E%3CmxCell%20id%3D%220%22%2F%3E%3CmxCell%20id%3D%221%22%20parent%3D%220%22%2F%3E%3CmxCell%20id%3D%222%22%20value%3D%22%26lt%3Bdiv%20style%3D%26quot%3Bbox-sizing%3Aborder-box%3Bwidth%3A100%25%3Bbackground%3A%23e4e4e4%3Bpadding%3A2px%3B%26quot%3B%26gt%3B%26lt%3Bb%26gt%3Bequipes_asu%26lt%3B%2Fb%26gt%3B%26lt%3B%2Fdiv%26gt%3B%26lt%3Btable%20style%3D%26quot%3Bwidth%3A100%25%3Bfont-size%3A1em%3B%26quot%3B%20cellpadding%3D%26quot%3B2%26quot%3B%20cellspacing%3D%26quot%3B0%26quot%3B%26gt%3B%26lt%3Btbody%26gt%3B%26lt%3Btr%26gt%3B%26lt%3Btd%26gt%3Bcnes%26lt%3Bbr%26gt%3Bseq_equipe%26lt%3Bbr%26gt%3Bds_equipe%26lt%3Bbr%26gt%3Bnome_referencia%20(nome%20da%20equipe)%26lt%3Bbr%26gt%3Bqtd_avaliacoes%26lt%3Bbr%26gt%3Basu_pontuacao%26lt%3Bbr%26gt%3Basu_zona%26lt%3Bbr%26gt%3Bcnes_nome%26lt%3Bbr%26gt%3Bano_quad%26lt%3Bbr%26gt%3Bunidade(%20de%20I%20a%20VIII%20em%20algorismos%26lt%3Bbr%26gt%3Bromanos)%26lt%3Bbr%26gt%3Bnumero_quadrimestre%26amp%3Bnbsp%3B%26lt%3B%2Ftd%26gt%3B%26lt%3Btd%26gt%3B%26lt%3Bbr%26gt%3B%26lt%3B%2Ftd%26gt%3B%26lt%3B%2Ftr%26gt%3B%26lt%3Btr%26gt%3B%26lt%3Btd%26gt%3B%26lt%3B%2Ftd%26gt%3B%26lt%3Btd%26gt%3B%26lt%3Bbr%26gt%3B%26lt%3Bbr%26gt%3B%26lt%3Bbr%26gt%3B%26lt%3B%2Ftd%26gt%3B%26lt%3B%2Ftr%26gt%3B%26lt%3Btr%26gt%3B%26lt%3Btd%26gt%3B%26lt%3B%2Ftd%26gt%3B%26lt%3Btd%26gt%3B%26lt%3Bbr%26gt%3B%26lt%3Bbr%26gt%3B%26lt%3B%2Ftd%26gt%3B%26lt%3B%2Ftr%26gt%3B%26lt%3B%2Ftbody%26gt%3B%26lt%3B%2Ftable%26gt%3B%22%20style%3D%22verticalAlign%3Dtop%3Balign%3Dleft%3Boverflow%3Dfill%3Bhtml%3D1%3Brounded%3D0%3Bshadow%3D0%3Bcomic%3D0%3BlabelBackgroundColor%3Dnone%3BstrokeWidth%3D1%3BfontFamily%3DVerdana%3BfontSize%3D12%22%20vertex%3D%221%22%20parent%3D%221%22%3E%3CmxGeometry%20x%3D%22-795%22%20y%3D%22-1620%22%20width%3D%22220%22%20height%3D%22230%22%20as%3D%22geometry%22%2F%3E%3C%2FmxCell%3E%3C%2Froot%3E%3C%2FmxGraphModel%3E&lt;/span&gt;&lt;/td&gt;&lt;td&gt;&lt;br&gt;&lt;/td&gt;&lt;/tr&gt;&lt;tr&gt;&lt;td&gt;&lt;/td&gt;&lt;td&gt;&lt;br&gt;&lt;br&gt;&lt;br&gt;&lt;/td&gt;&lt;/tr&gt;&lt;tr&gt;&lt;td&gt;&lt;/td&gt;&lt;td&gt;&lt;br&gt;&lt;br&gt;&lt;/td&gt;&lt;/tr&gt;&lt;/tbody&gt;&lt;/table&gt;" style="verticalAlign=top;align=left;overflow=fill;html=1;rounded=0;shadow=0;comic=0;labelBackgroundColor=none;strokeWidth=1;fontFamily=Verdana;fontSize=12" parent="WIyWlLk6GJQsqaUBKTNV-1" vertex="1">
          <mxGeometry x="14" y="-1380" width="220" height="230" as="geometry" />
        </mxCell>
        <mxCell id="A4LTRsrQjvw_CSVddsjn-100" value="&lt;div style=&quot;box-sizing:border-box;width:100%;background:#e4e4e4;padding:2px;&quot;&gt;&lt;b&gt;servidor&lt;/b&gt;&lt;/div&gt;&lt;table style=&quot;width:100%;font-size:1em;&quot; cellpadding=&quot;2&quot; cellspacing=&quot;0&quot;&gt;&lt;tbody&gt;&lt;tr&gt;&lt;td&gt;&lt;br&gt;&lt;/td&gt;&lt;td&gt;&lt;b&gt;PK&lt;/b&gt; id_servidor&lt;br&gt;nome_servidor&lt;/td&gt;&lt;/tr&gt;&lt;tr&gt;&lt;td&gt;&lt;br&gt;&lt;/td&gt;&lt;td&gt;situacao_funcional (ATIVO)&lt;br&gt;perfil_cargo (ACS)&lt;br&gt;perfil_und_lotacao (tipo_unidade)&lt;br&gt;und_lotacao&lt;br&gt;distrito ( de I a VIII)&lt;br&gt;equipe VARCHAR&lt;br&gt;cod_und_lotacao&lt;br&gt;cnes_und_lotacao&lt;br&gt;setor&lt;br&gt;turno_trabalho&lt;br&gt;fk_id_unidade (fk para tabela unidade)&lt;br&gt;&lt;br&gt;&lt;br&gt;&lt;/td&gt;&lt;/tr&gt;&lt;tr&gt;&lt;td&gt;&lt;/td&gt;&lt;td&gt;&lt;br&gt;&lt;br&gt;&lt;/td&gt;&lt;/tr&gt;&lt;/tbody&gt;&lt;/table&gt;" style="verticalAlign=top;align=left;overflow=fill;html=1;rounded=0;shadow=0;comic=0;labelBackgroundColor=none;strokeWidth=1;fontFamily=Verdana;fontSize=12" parent="WIyWlLk6GJQsqaUBKTNV-1" vertex="1">
          <mxGeometry x="-930" y="-1000" width="250" height="230" as="geometry" />
        </mxCell>
        <mxCell id="A4LTRsrQjvw_CSVddsjn-101" value="&lt;div style=&quot;box-sizing:border-box;width:100%;background:#e4e4e4;padding:2px;&quot;&gt;&lt;b&gt;equipe_asu&lt;/b&gt;&lt;/div&gt;&lt;table style=&quot;width:100%;font-size:1em;&quot; cellpadding=&quot;2&quot; cellspacing=&quot;0&quot;&gt;&lt;tbody&gt;&lt;tr&gt;&lt;td&gt;&lt;b&gt;PK&lt;/b&gt;&amp;nbsp; &amp;nbsp; &amp;nbsp;id_equipe_asu&lt;br&gt;&lt;blockquote style=&quot;margin: 0 0 0 40px; border: none; padding: 0px;&quot;&gt;seq_equipe&lt;br&gt;ds_equipe&lt;br&gt;nome_referencia (nome da equipe)&lt;br&gt;qtd_avaliacoes&lt;br&gt;asu_pontuacao&lt;br&gt;asu_zona&lt;br&gt;cnes_nome&lt;br&gt;ano_quad&lt;br&gt;unidade( de I a VIII em algorismos&lt;br&gt;romanos)&lt;br&gt;numero_quadrimestre&amp;nbsp;&lt;br&gt;fk cnes_padrao (fk para tabela unidade)&lt;/blockquote&gt;&lt;/td&gt;&lt;td&gt;&lt;br&gt;&lt;/td&gt;&lt;/tr&gt;&lt;tr&gt;&lt;td&gt;&lt;/td&gt;&lt;td&gt;&lt;br&gt;&lt;br&gt;&lt;br&gt;&lt;/td&gt;&lt;/tr&gt;&lt;tr&gt;&lt;td&gt;&lt;/td&gt;&lt;td&gt;&lt;br&gt;&lt;br&gt;&lt;/td&gt;&lt;/tr&gt;&lt;/tbody&gt;&lt;/table&gt;" style="verticalAlign=top;align=left;overflow=fill;html=1;rounded=0;shadow=0;comic=0;labelBackgroundColor=none;strokeWidth=1;fontFamily=Verdana;fontSize=12" parent="WIyWlLk6GJQsqaUBKTNV-1" vertex="1">
          <mxGeometry x="-566" y="-1000" width="290" height="230" as="geometry" />
        </mxCell>
        <mxCell id="A4LTRsrQjvw_CSVddsjn-103" value="&lt;div style=&quot;box-sizing:border-box;width:100%;background:#e4e4e4;padding:2px;&quot;&gt;&lt;b&gt;criterio&lt;/b&gt;&lt;/div&gt;&lt;b&gt;PK&amp;nbsp; &amp;nbsp; &amp;nbsp;&amp;nbsp;&lt;/b&gt;id_criterios&lt;blockquote style=&quot;margin: 0 0 0 40px; border: none; padding: 0px;&quot;&gt;&lt;div&gt;critica&lt;/div&gt;&lt;div&gt;aperfeicoamento&lt;/div&gt;&lt;div&gt;qualidade&lt;/div&gt;&lt;div&gt;escelencia&lt;/div&gt;&lt;div&gt;sem_avaliacao&lt;/div&gt;&lt;div&gt;total&lt;/div&gt;&lt;/blockquote&gt;&lt;div&gt;&lt;table style=&quot;width:100%;font-size:1em;&quot; cellpadding=&quot;2&quot; cellspacing=&quot;0&quot;&gt;&lt;tbody&gt;&lt;tr&gt;&lt;td&gt;&lt;br&gt;&lt;br&gt;&lt;/td&gt;&lt;td&gt;&lt;/td&gt;&lt;/tr&gt;&lt;tr&gt;&lt;td&gt;&lt;/td&gt;&lt;td&gt;&lt;br&gt;&lt;br&gt;&lt;br&gt;&lt;/td&gt;&lt;/tr&gt;&lt;tr&gt;&lt;td&gt;&lt;/td&gt;&lt;td&gt;&lt;br&gt;&lt;br&gt;&lt;/td&gt;&lt;/tr&gt;&lt;/tbody&gt;&lt;/table&gt;&lt;/div&gt;" style="verticalAlign=top;align=left;overflow=fill;html=1;rounded=0;shadow=0;comic=0;labelBackgroundColor=none;strokeWidth=1;fontFamily=Verdana;fontSize=12" parent="WIyWlLk6GJQsqaUBKTNV-1" vertex="1">
          <mxGeometry x="-930" y="-740" width="220" height="230" as="geometry" />
        </mxCell>
        <mxCell id="A4LTRsrQjvw_CSVddsjn-104" value="&lt;div style=&quot;box-sizing:border-box;width:100%;background:#e4e4e4;padding:2px;&quot;&gt;&lt;b&gt;equipes_cnes&lt;/b&gt;&lt;/div&gt;&lt;b&gt;PK&lt;/b&gt; id_equipe_cnes&lt;table style=&quot;width:100%;font-size:1em;&quot; cellpadding=&quot;2&quot; cellspacing=&quot;0&quot;&gt;&lt;tbody&gt;&lt;tr&gt;&lt;td&gt;&lt;blockquote style=&quot;margin: 0px 0px 0px 40px; border: none; padding: 0px;&quot;&gt;seq_equipe&lt;/blockquote&gt;&lt;blockquote style=&quot;margin: 0px 0px 0px 40px; border: none; padding: 0px;&quot;&gt;ds_equipe&lt;/blockquote&gt;&lt;blockquote style=&quot;margin: 0px 0px 0px 40px; border: none; padding: 0px;&quot;&gt;nome_referencia&lt;/blockquote&gt;&lt;blockquote style=&quot;margin: 0px 0px 0px 40px; border: none; padding: 0px;&quot;&gt;turno_atende&lt;/blockquote&gt;&lt;blockquote style=&quot;margin: 0px 0px 0px 40px; border: none; padding: 0px;&quot;&gt;criacao_equipe&lt;/blockquote&gt;&lt;blockquote style=&quot;margin: 0px 0px 0px 40px; border: none; padding: 0px;&quot;&gt;data_desativacao&lt;/blockquote&gt;&lt;blockquote style=&quot;margin: 0px 0px 0px 40px; border: none; padding: 0px;&quot;&gt;fk_id_tipo_equipe (fk para tabela TipoEquipe)&lt;/blockquote&gt;&lt;blockquote style=&quot;margin: 0px 0px 0px 40px; border: none; padding: 0px;&quot;&gt;sg_equipe&lt;/blockquote&gt;&lt;blockquote style=&quot;margin: 0px 0px 0px 40px; border: none; padding: 0px;&quot;&gt;&lt;br&gt;&lt;/blockquote&gt;&lt;blockquote style=&quot;margin: 0px 0px 0px 40px; border: none; padding: 0px;&quot;&gt;&lt;br&gt;&lt;/blockquote&gt;&lt;blockquote style=&quot;margin: 0px 0px 0px 40px; border: none; padding: 0px;&quot;&gt;&lt;br&gt;&lt;/blockquote&gt;&lt;blockquote style=&quot;margin: 0px 0px 0px 40px; border: none; padding: 0px;&quot;&gt;&lt;br&gt;&lt;/blockquote&gt;&lt;blockquote style=&quot;margin: 0px 0px 0px 40px; border: none; padding: 0px;&quot;&gt;&lt;br&gt;&lt;/blockquote&gt;&lt;blockquote style=&quot;margin: 0px 0px 0px 40px; border: none; padding: 0px;&quot;&gt;&lt;br&gt;&lt;/blockquote&gt;&lt;blockquote style=&quot;margin: 0px 0px 0px 40px; border: none; padding: 0px;&quot;&gt;&lt;br&gt;&lt;/blockquote&gt;&lt;blockquote style=&quot;margin: 0px 0px 0px 40px; border: none; padding: 0px;&quot;&gt;fk cnes_padrao (fk para tabela unidade)&lt;/blockquote&gt;&lt;br&gt;&lt;br&gt;&lt;br&gt;&lt;br&gt;&lt;br&gt;&lt;br&gt;&lt;br&gt;&lt;/td&gt;&lt;td&gt;&lt;/td&gt;&lt;/tr&gt;&lt;tr&gt;&lt;td&gt;&lt;/td&gt;&lt;td&gt;&lt;br&gt;&lt;br&gt;&lt;br&gt;&lt;/td&gt;&lt;/tr&gt;&lt;tr&gt;&lt;td&gt;&lt;/td&gt;&lt;td&gt;&lt;br&gt;&lt;br&gt;&lt;/td&gt;&lt;/tr&gt;&lt;/tbody&gt;&lt;/table&gt;" style="verticalAlign=top;align=left;overflow=fill;html=1;rounded=0;shadow=0;comic=0;labelBackgroundColor=none;strokeWidth=1;fontFamily=Verdana;fontSize=12" parent="WIyWlLk6GJQsqaUBKTNV-1" vertex="1">
          <mxGeometry x="-600" y="-740" width="330" height="230" as="geometry" />
        </mxCell>
        <mxCell id="A4LTRsrQjvw_CSVddsjn-105" value="&lt;div style=&quot;box-sizing:border-box;width:100%;background:#e4e4e4;padding:2px;&quot;&gt;&lt;b&gt;tipoEquipe&lt;/b&gt;&lt;/div&gt;&lt;b&gt;PK&amp;nbsp; &amp;nbsp; &amp;nbsp;&lt;/b&gt;id_tipo_equipe&lt;div&gt;&lt;span style=&quot;white-space: pre;&quot;&gt;&#x9;&lt;/span&gt;&amp;nbsp;tipo_equipe&lt;br&gt;&lt;div&gt;&lt;table style=&quot;width:100%;font-size:1em;&quot; cellpadding=&quot;2&quot; cellspacing=&quot;0&quot;&gt;&lt;tbody&gt;&lt;tr&gt;&lt;td&gt;&lt;br&gt;&lt;br&gt;&lt;/td&gt;&lt;td&gt;&lt;/td&gt;&lt;/tr&gt;&lt;tr&gt;&lt;td&gt;&lt;/td&gt;&lt;td&gt;&lt;br&gt;&lt;br&gt;&lt;br&gt;&lt;/td&gt;&lt;/tr&gt;&lt;tr&gt;&lt;td&gt;&lt;/td&gt;&lt;td&gt;&lt;br&gt;&lt;br&gt;&lt;/td&gt;&lt;/tr&gt;&lt;/tbody&gt;&lt;/table&gt;&lt;/div&gt;&lt;/div&gt;" style="verticalAlign=top;align=left;overflow=fill;html=1;rounded=0;shadow=0;comic=0;labelBackgroundColor=none;strokeWidth=1;fontFamily=Verdana;fontSize=12" parent="WIyWlLk6GJQsqaUBKTNV-1" vertex="1">
          <mxGeometry x="-160" y="-780" width="220" height="80" as="geometry" />
        </mxCell>
        <mxCell id="A4LTRsrQjvw_CSVddsjn-106" value="&lt;div style=&quot;box-sizing:border-box;width:100%;background:#e4e4e4;padding:2px;&quot;&gt;&lt;b&gt;gerente&lt;/b&gt;&lt;/div&gt;&lt;table style=&quot;width:100%;font-size:1em;&quot; cellpadding=&quot;2&quot; cellspacing=&quot;0&quot;&gt;&lt;tbody&gt;&lt;tr&gt;&lt;td&gt;&lt;b&gt;PK&lt;/b&gt;&amp;nbsp; &amp;nbsp; &amp;nbsp;id_gerente&lt;br&gt;&lt;blockquote style=&quot;margin: 0 0 0 40px; border: none; padding: 0px;&quot;&gt;distrito&lt;br&gt;nome_unidade&lt;br&gt;nome_gerente&amp;nbsp;&lt;br&gt;cargo (gerente de unidade de saúde,&lt;br&gt;só tem esse registro)&lt;br&gt;cpf(tem ponto e traço)&lt;br&gt;contato (telefone)&lt;br&gt;email&lt;br&gt;fk cnes_padrao (fk para tabela unidade)&lt;br&gt;&lt;span style=&quot;color: rgba(0, 0, 0, 0); font-family: monospace; font-size: 0px;&quot;&gt;%3CmxGraphModel%3E%3Croot%3E%3CmxCell%20id%3D%220%22%2F%3E%3CmxCell%20id%3D%221%22%20parent%3D%220%22%2F%3E%3CmxCell%20id%3D%222%22%20value%3D%22%26lt%3Bdiv%20style%3D%26quot%3Bbox-sizing%3Aborder-box%3Bwidth%3A100%25%3Bbackground%3A%23e4e4e4%3Bpadding%3A2px%3B%26quot%3B%26gt%3B%26lt%3Bb%26gt%3Bequipes_asu%26lt%3B%2Fb%26gt%3B%26lt%3B%2Fdiv%26gt%3B%26lt%3Btable%20style%3D%26quot%3Bwidth%3A100%25%3Bfont-size%3A1em%3B%26quot%3B%20cellpadding%3D%26quot%3B2%26quot%3B%20cellspacing%3D%26quot%3B0%26quot%3B%26gt%3B%26lt%3Btbody%26gt%3B%26lt%3Btr%26gt%3B%26lt%3Btd%26gt%3Bcnes%26lt%3Bbr%26gt%3Bseq_equipe%26lt%3Bbr%26gt%3Bds_equipe%26lt%3Bbr%26gt%3Bnome_referencia%20(nome%20da%20equipe)%26lt%3Bbr%26gt%3Bqtd_avaliacoes%26lt%3Bbr%26gt%3Basu_pontuacao%26lt%3Bbr%26gt%3Basu_zona%26lt%3Bbr%26gt%3Bcnes_nome%26lt%3Bbr%26gt%3Bano_quad%26lt%3Bbr%26gt%3Bunidade(%20de%20I%20a%20VIII%20em%20algorismos%26lt%3Bbr%26gt%3Bromanos)%26lt%3Bbr%26gt%3Bnumero_quadrimestre%26amp%3Bnbsp%3B%26lt%3B%2Ftd%26gt%3B%26lt%3Btd%26gt%3B%26lt%3Bbr%26gt%3B%26lt%3B%2Ftd%26gt%3B%26lt%3B%2Ftr%26gt%3B%26lt%3Btr%26gt%3B%26lt%3Btd%26gt%3B%26lt%3B%2Ftd%26gt%3B%26lt%3Btd%26gt%3B%26lt%3Bbr%26gt%3B%26lt%3Bbr%26gt%3B%26lt%3Bbr%26gt%3B%26lt%3B%2Ftd%26gt%3B%26lt%3B%2Ftr%26gt%3B%26lt%3Btr%26gt%3B%26lt%3Btd%26gt%3B%26lt%3B%2Ftd%26gt%3B%26lt%3Btd%26gt%3B%26lt%3Bbr%26gt%3B%26lt%3Bbr%26gt%3B%26lt%3B%2Ftd%26gt%3B%26lt%3B%2Ftr%26gt%3B%26lt%3B%2Ftbody%26gt%3B%26lt%3B%2Ftable%26gt%3B%22%20style%3D%22verticalAlign%3Dtop%3Balign%3Dleft%3Boverflow%3Dfill%3Bhtml%3D1%3Brounded%3D0%3Bshadow%3D0%3Bcomic%3D0%3BlabelBackgroundColor%3Dnone%3BstrokeWidth%3D1%3BfontFamily%3DVerdana%3BfontSize%3D12%22%20vertex%3D%221%22%20parent%3D%221%22%3E%3CmxGeometry%20x%3D%22-795%22%20y%3D%22-1620%22%20width%3D%22220%22%20height%3D%22230%22%20as%3D%22geometry%22%2F%3E%3C%2FmxCell%3E%3C%2Froot%3E%3C%2FmxGraphModel%3E&lt;/span&gt;&lt;/blockquote&gt;&lt;/td&gt;&lt;td&gt;&lt;br&gt;&lt;/td&gt;&lt;/tr&gt;&lt;tr&gt;&lt;td&gt;&lt;/td&gt;&lt;td&gt;&lt;br&gt;&lt;br&gt;&lt;br&gt;&lt;/td&gt;&lt;/tr&gt;&lt;tr&gt;&lt;td&gt;&lt;/td&gt;&lt;td&gt;&lt;br&gt;&lt;br&gt;&lt;/td&gt;&lt;/tr&gt;&lt;/tbody&gt;&lt;/table&gt;" style="verticalAlign=top;align=left;overflow=fill;html=1;rounded=0;shadow=0;comic=0;labelBackgroundColor=none;strokeWidth=1;fontFamily=Verdana;fontSize=12" parent="WIyWlLk6GJQsqaUBKTNV-1" vertex="1">
          <mxGeometry x="110" y="-850" width="290" height="230" as="geometry" />
        </mxCell>
        <mxCell id="A4LTRsrQjvw_CSVddsjn-107" value="&lt;div style=&quot;box-sizing:border-box;width:100%;background:#e4e4e4;padding:2px;&quot;&gt;&lt;b&gt;servidor&lt;/b&gt;&lt;/div&gt;&lt;table style=&quot;width:100%;font-size:1em;&quot; cellpadding=&quot;2&quot; cellspacing=&quot;0&quot;&gt;&lt;tbody&gt;&lt;tr&gt;&lt;td&gt;&lt;br&gt;&lt;/td&gt;&lt;td&gt;&lt;b&gt;PK&lt;/b&gt; id_servidor&lt;br&gt;nome_servidor&lt;/td&gt;&lt;/tr&gt;&lt;tr&gt;&lt;td&gt;&lt;br&gt;&lt;/td&gt;&lt;td&gt;situacao_funcional (ATIVO)&lt;br&gt;perfil_cargo (ACS)&lt;br&gt;cod_und_lotacao&lt;br&gt;perfil_und_lotacao (tipo_unidade)&lt;br&gt;cnes_und_lotacao&lt;br&gt;setor&lt;br&gt;turno_trabalho&lt;br&gt;fk_id_unidade (fk para tabela unidade)&lt;br&gt;&lt;br&gt;&lt;br&gt;&lt;/td&gt;&lt;/tr&gt;&lt;tr&gt;&lt;td&gt;&lt;/td&gt;&lt;td&gt;&lt;br&gt;&lt;br&gt;&lt;/td&gt;&lt;/tr&gt;&lt;/tbody&gt;&lt;/table&gt;" style="verticalAlign=top;align=left;overflow=fill;html=1;rounded=0;shadow=0;comic=0;labelBackgroundColor=none;strokeWidth=1;fontFamily=Verdana;fontSize=12" parent="WIyWlLk6GJQsqaUBKTNV-1" vertex="1">
          <mxGeometry x="-880" y="-370" width="250" height="230" as="geometry" />
        </mxCell>
        <mxCell id="A4LTRsrQjvw_CSVddsjn-109" value="&lt;div style=&quot;box-sizing:border-box;width:100%;background:#e4e4e4;padding:2px;&quot;&gt;&lt;b&gt;unidade_equipe_asu&lt;/b&gt;&lt;/div&gt;&lt;table style=&quot;width:100%;font-size:1em;&quot; cellpadding=&quot;2&quot; cellspacing=&quot;0&quot;&gt;&lt;tbody&gt;&lt;tr&gt;&lt;td&gt;&lt;b&gt;PK&amp;nbsp; &amp;nbsp; &amp;nbsp;&lt;/b&gt;id_unidade_equipe_asu&lt;br&gt;&lt;blockquote style=&quot;margin: 0 0 0 40px; border: none; padding: 0px;&quot;&gt;fk_criterio (fk para tabela criterio)&lt;br&gt;fk_cnes_padrao (fk para tabela unidade)&lt;br&gt;ano_quad&lt;/blockquote&gt;&lt;br&gt;&lt;/td&gt;&lt;td&gt;&lt;/td&gt;&lt;/tr&gt;&lt;tr&gt;&lt;td&gt;&lt;/td&gt;&lt;td&gt;&lt;br&gt;&lt;br&gt;&lt;br&gt;&lt;/td&gt;&lt;/tr&gt;&lt;tr&gt;&lt;td&gt;&lt;/td&gt;&lt;td&gt;&lt;br&gt;&lt;br&gt;&lt;/td&gt;&lt;/tr&gt;&lt;/tbody&gt;&lt;/table&gt;" style="verticalAlign=top;align=left;overflow=fill;html=1;rounded=0;shadow=0;comic=0;labelBackgroundColor=none;strokeWidth=1;fontFamily=Verdana;fontSize=12" parent="WIyWlLk6GJQsqaUBKTNV-1" vertex="1">
          <mxGeometry x="-750" y="-20" width="250" height="100" as="geometry" />
        </mxCell>
        <mxCell id="A4LTRsrQjvw_CSVddsjn-111" value="&lt;div style=&quot;box-sizing:border-box;width:100%;background:#e4e4e4;padding:2px;&quot;&gt;&lt;b&gt;equipes_cnes&lt;/b&gt;&lt;/div&gt;&lt;b&gt;PK&lt;/b&gt; id_equipe_cnes&lt;table style=&quot;width:100%;font-size:1em;&quot; cellpadding=&quot;2&quot; cellspacing=&quot;0&quot;&gt;&lt;tbody&gt;&lt;tr&gt;&lt;td&gt;&lt;blockquote style=&quot;margin: 0px 0px 0px 40px; border: none; padding: 0px;&quot;&gt;seq_equipe&lt;/blockquote&gt;&lt;blockquote style=&quot;margin: 0px 0px 0px 40px; border: none; padding: 0px;&quot;&gt;ds_equipe&lt;/blockquote&gt;&lt;blockquote style=&quot;margin: 0px 0px 0px 40px; border: none; padding: 0px;&quot;&gt;nome_referencia&lt;/blockquote&gt;&lt;blockquote style=&quot;margin: 0px 0px 0px 40px; border: none; padding: 0px;&quot;&gt;turno_atende&lt;/blockquote&gt;&lt;blockquote style=&quot;margin: 0px 0px 0px 40px; border: none; padding: 0px;&quot;&gt;criacao_equipe&lt;/blockquote&gt;&lt;blockquote style=&quot;margin: 0px 0px 0px 40px; border: none; padding: 0px;&quot;&gt;data_desativacao&lt;/blockquote&gt;&lt;blockquote style=&quot;margin: 0px 0px 0px 40px; border: none; padding: 0px;&quot;&gt;sg_equipe&lt;br&gt;&lt;/blockquote&gt;&lt;blockquote style=&quot;margin: 0px 0px 0px 40px; border: none; padding: 0px;&quot;&gt;fk_id_tipo_equipe (fk para tabela TipoEquipe)&lt;/blockquote&gt;&lt;blockquote style=&quot;margin: 0px 0px 0px 40px; border: none; padding: 0px;&quot;&gt;fk_cnes_padrao (fk par tabela unidade)&lt;/blockquote&gt;&lt;blockquote style=&quot;margin: 0px 0px 0px 40px; border: none; padding: 0px;&quot;&gt;&lt;table style=&quot;font-size: 1em; width: 290.719px;&quot; cellpadding=&quot;2&quot; cellspacing=&quot;0&quot;&gt;&lt;tbody&gt;&lt;tr&gt;&lt;td&gt;&lt;/td&gt;&lt;td&gt;&lt;blockquote style=&quot;margin: 0px 0px 0px 40px; border: none; padding: 0px;&quot;&gt;&lt;/blockquote&gt;&lt;/td&gt;&lt;td&gt;&lt;br&gt;&lt;/td&gt;&lt;/tr&gt;&lt;/tbody&gt;&lt;/table&gt;&lt;/blockquote&gt;&lt;blockquote style=&quot;margin: 0px 0px 0px 40px; border: none; padding: 0px;&quot;&gt;&lt;br&gt;&lt;/blockquote&gt;&lt;blockquote style=&quot;margin: 0px 0px 0px 40px; border: none; padding: 0px;&quot;&gt;&lt;br&gt;&lt;/blockquote&gt;&lt;blockquote style=&quot;margin: 0px 0px 0px 40px; border: none; padding: 0px;&quot;&gt;&lt;br&gt;&lt;/blockquote&gt;&lt;blockquote style=&quot;margin: 0px 0px 0px 40px; border: none; padding: 0px;&quot;&gt;&lt;br&gt;&lt;/blockquote&gt;&lt;blockquote style=&quot;margin: 0px 0px 0px 40px; border: none; padding: 0px;&quot;&gt;&lt;br&gt;&lt;/blockquote&gt;&lt;blockquote style=&quot;margin: 0px 0px 0px 40px; border: none; padding: 0px;&quot;&gt;&lt;br&gt;&lt;/blockquote&gt;&lt;blockquote style=&quot;margin: 0px 0px 0px 40px; border: none; padding: 0px;&quot;&gt;&lt;br&gt;&lt;/blockquote&gt;&lt;blockquote style=&quot;margin: 0px 0px 0px 40px; border: none; padding: 0px;&quot;&gt;fk cnes_padrao (fk para tabela unidade)&lt;/blockquote&gt;&lt;br&gt;&lt;br&gt;&lt;br&gt;&lt;br&gt;&lt;br&gt;&lt;br&gt;&lt;br&gt;&lt;/td&gt;&lt;td&gt;&lt;/td&gt;&lt;/tr&gt;&lt;tr&gt;&lt;td&gt;&lt;/td&gt;&lt;td&gt;&lt;br&gt;&lt;br&gt;&lt;br&gt;&lt;/td&gt;&lt;/tr&gt;&lt;tr&gt;&lt;td&gt;&lt;/td&gt;&lt;td&gt;&lt;br&gt;&lt;br&gt;&lt;/td&gt;&lt;/tr&gt;&lt;/tbody&gt;&lt;/table&gt;" style="verticalAlign=top;align=left;overflow=fill;html=1;rounded=0;shadow=0;comic=0;labelBackgroundColor=none;strokeWidth=1;fontFamily=Verdana;fontSize=12" parent="WIyWlLk6GJQsqaUBKTNV-1" vertex="1">
          <mxGeometry x="-483" y="-340" width="330" height="230" as="geometry" />
        </mxCell>
        <mxCell id="A4LTRsrQjvw_CSVddsjn-112" value="&lt;div style=&quot;box-sizing:border-box;width:100%;background:#e4e4e4;padding:2px;&quot;&gt;&lt;b&gt;tipoEquipe&lt;/b&gt;&lt;/div&gt;&lt;b&gt;PK&amp;nbsp; &amp;nbsp; &amp;nbsp;&lt;/b&gt;id_tipo_equipe&lt;div&gt;&lt;span style=&quot;white-space: pre;&quot;&gt;&#x9;&lt;/span&gt;&amp;nbsp;tipo_equipe&lt;br&gt;&lt;div&gt;&lt;table style=&quot;width:100%;font-size:1em;&quot; cellpadding=&quot;2&quot; cellspacing=&quot;0&quot;&gt;&lt;tbody&gt;&lt;tr&gt;&lt;td&gt;&lt;br&gt;&lt;br&gt;&lt;/td&gt;&lt;td&gt;&lt;/td&gt;&lt;/tr&gt;&lt;tr&gt;&lt;td&gt;&lt;/td&gt;&lt;td&gt;&lt;br&gt;&lt;br&gt;&lt;br&gt;&lt;/td&gt;&lt;/tr&gt;&lt;tr&gt;&lt;td&gt;&lt;/td&gt;&lt;td&gt;&lt;br&gt;&lt;br&gt;&lt;/td&gt;&lt;/tr&gt;&lt;/tbody&gt;&lt;/table&gt;&lt;/div&gt;&lt;/div&gt;" style="verticalAlign=top;align=left;overflow=fill;html=1;rounded=0;shadow=0;comic=0;labelBackgroundColor=none;strokeWidth=1;fontFamily=Verdana;fontSize=12" parent="WIyWlLk6GJQsqaUBKTNV-1" vertex="1">
          <mxGeometry x="-20" y="-340" width="220" height="70" as="geometry" />
        </mxCell>
        <mxCell id="A4LTRsrQjvw_CSVddsjn-113" value="&lt;div style=&quot;box-sizing:border-box;width:100%;background:#e4e4e4;padding:2px;&quot;&gt;&lt;b&gt;gerente&lt;/b&gt;&lt;/div&gt;&lt;table style=&quot;width:100%;font-size:1em;&quot; cellpadding=&quot;2&quot; cellspacing=&quot;0&quot;&gt;&lt;tbody&gt;&lt;tr&gt;&lt;td&gt;&lt;b&gt;PK&lt;/b&gt;&amp;nbsp; &amp;nbsp; &amp;nbsp;id_gerente&lt;br&gt;&lt;blockquote style=&quot;margin: 0 0 0 40px; border: none; padding: 0px;&quot;&gt;distrito&lt;br&gt;nome_unidade&lt;br&gt;nome_gerente&amp;nbsp;&lt;br&gt;cargo (gerente de unidade de saúde,&lt;br&gt;só tem esse registro)&lt;br&gt;cpf(tem ponto e traço)&lt;br&gt;contato (telefone)&lt;br&gt;email&lt;br&gt;fk cnes_padrao (fk para tabela unidade)&lt;br&gt;&lt;span style=&quot;color: rgba(0, 0, 0, 0); font-family: monospace; font-size: 0px;&quot;&gt;%3CmxGraphModel%3E%3Croot%3E%3CmxCell%20id%3D%220%22%2F%3E%3CmxCell%20id%3D%221%22%20parent%3D%220%22%2F%3E%3CmxCell%20id%3D%222%22%20value%3D%22%26lt%3Bdiv%20style%3D%26quot%3Bbox-sizing%3Aborder-box%3Bwidth%3A100%25%3Bbackground%3A%23e4e4e4%3Bpadding%3A2px%3B%26quot%3B%26gt%3B%26lt%3Bb%26gt%3Bequipes_asu%26lt%3B%2Fb%26gt%3B%26lt%3B%2Fdiv%26gt%3B%26lt%3Btable%20style%3D%26quot%3Bwidth%3A100%25%3Bfont-size%3A1em%3B%26quot%3B%20cellpadding%3D%26quot%3B2%26quot%3B%20cellspacing%3D%26quot%3B0%26quot%3B%26gt%3B%26lt%3Btbody%26gt%3B%26lt%3Btr%26gt%3B%26lt%3Btd%26gt%3Bcnes%26lt%3Bbr%26gt%3Bseq_equipe%26lt%3Bbr%26gt%3Bds_equipe%26lt%3Bbr%26gt%3Bnome_referencia%20(nome%20da%20equipe)%26lt%3Bbr%26gt%3Bqtd_avaliacoes%26lt%3Bbr%26gt%3Basu_pontuacao%26lt%3Bbr%26gt%3Basu_zona%26lt%3Bbr%26gt%3Bcnes_nome%26lt%3Bbr%26gt%3Bano_quad%26lt%3Bbr%26gt%3Bunidade(%20de%20I%20a%20VIII%20em%20algorismos%26lt%3Bbr%26gt%3Bromanos)%26lt%3Bbr%26gt%3Bnumero_quadrimestre%26amp%3Bnbsp%3B%26lt%3B%2Ftd%26gt%3B%26lt%3Btd%26gt%3B%26lt%3Bbr%26gt%3B%26lt%3B%2Ftd%26gt%3B%26lt%3B%2Ftr%26gt%3B%26lt%3Btr%26gt%3B%26lt%3Btd%26gt%3B%26lt%3B%2Ftd%26gt%3B%26lt%3Btd%26gt%3B%26lt%3Bbr%26gt%3B%26lt%3Bbr%26gt%3B%26lt%3Bbr%26gt%3B%26lt%3B%2Ftd%26gt%3B%26lt%3B%2Ftr%26gt%3B%26lt%3Btr%26gt%3B%26lt%3Btd%26gt%3B%26lt%3B%2Ftd%26gt%3B%26lt%3Btd%26gt%3B%26lt%3Bbr%26gt%3B%26lt%3Bbr%26gt%3B%26lt%3B%2Ftd%26gt%3B%26lt%3B%2Ftr%26gt%3B%26lt%3B%2Ftbody%26gt%3B%26lt%3B%2Ftable%26gt%3B%22%20style%3D%22verticalAlign%3Dtop%3Balign%3Dleft%3Boverflow%3Dfill%3Bhtml%3D1%3Brounded%3D0%3Bshadow%3D0%3Bcomic%3D0%3BlabelBackgroundColor%3Dnone%3BstrokeWidth%3D1%3BfontFamily%3DVerdana%3BfontSize%3D12%22%20vertex%3D%221%22%20parent%3D%221%22%3E%3CmxGeometry%20x%3D%22-795%22%20y%3D%22-1620%22%20width%3D%22220%22%20height%3D%22230%22%20as%3D%22geometry%22%2F%3E%3C%2FmxCell%3E%3C%2Froot%3E%3C%2FmxGraphModel%3E&lt;/span&gt;&lt;/blockquote&gt;&lt;/td&gt;&lt;td&gt;&lt;br&gt;&lt;/td&gt;&lt;/tr&gt;&lt;tr&gt;&lt;td&gt;&lt;/td&gt;&lt;td&gt;&lt;br&gt;&lt;br&gt;&lt;br&gt;&lt;/td&gt;&lt;/tr&gt;&lt;tr&gt;&lt;td&gt;&lt;/td&gt;&lt;td&gt;&lt;br&gt;&lt;br&gt;&lt;/td&gt;&lt;/tr&gt;&lt;/tbody&gt;&lt;/table&gt;" style="verticalAlign=top;align=left;overflow=fill;html=1;rounded=0;shadow=0;comic=0;labelBackgroundColor=none;strokeWidth=1;fontFamily=Verdana;fontSize=12" parent="WIyWlLk6GJQsqaUBKTNV-1" vertex="1">
          <mxGeometry x="-40" y="-200" width="290" height="230" as="geometry" />
        </mxCell>
        <mxCell id="A4LTRsrQjvw_CSVddsjn-140" value="Modelo Final" style="text;strokeColor=none;fillColor=none;html=1;fontSize=24;fontStyle=1;verticalAlign=middle;align=center;" parent="WIyWlLk6GJQsqaUBKTNV-1" vertex="1">
          <mxGeometry x="-237" y="189" width="160" height="41" as="geometry" />
        </mxCell>
        <mxCell id="A4LTRsrQjvw_CSVddsjn-141" value="" style="endArrow=none;html=1;rounded=0;" parent="WIyWlLk6GJQsqaUBKTNV-1" edge="1">
          <mxGeometry width="50" height="50" relative="1" as="geometry">
            <mxPoint x="-930" y="760" as="sourcePoint" />
            <mxPoint x="-930" y="180" as="targetPoint" />
          </mxGeometry>
        </mxCell>
        <mxCell id="A4LTRsrQjvw_CSVddsjn-142" value="" style="endArrow=none;html=1;rounded=0;" parent="WIyWlLk6GJQsqaUBKTNV-1" edge="1">
          <mxGeometry width="50" height="50" relative="1" as="geometry">
            <mxPoint x="542" y="760" as="sourcePoint" />
            <mxPoint x="541" y="180" as="targetPoint" />
          </mxGeometry>
        </mxCell>
        <mxCell id="A4LTRsrQjvw_CSVddsjn-143" value="" style="endArrow=none;html=1;rounded=0;" parent="WIyWlLk6GJQsqaUBKTNV-1" edge="1">
          <mxGeometry width="50" height="50" relative="1" as="geometry">
            <mxPoint x="542" y="760" as="sourcePoint" />
            <mxPoint x="-928" y="760" as="targetPoint" />
          </mxGeometry>
        </mxCell>
        <mxCell id="A4LTRsrQjvw_CSVddsjn-144" value="" style="endArrow=none;html=1;rounded=0;" parent="WIyWlLk6GJQsqaUBKTNV-1" edge="1">
          <mxGeometry width="50" height="50" relative="1" as="geometry">
            <mxPoint x="542" y="180" as="sourcePoint" />
            <mxPoint x="-929" y="180" as="targetPoint" />
          </mxGeometry>
        </mxCell>
        <mxCell id="A4LTRsrQjvw_CSVddsjn-145" value="" style="endArrow=none;html=1;rounded=0;" parent="WIyWlLk6GJQsqaUBKTNV-1" edge="1">
          <mxGeometry width="50" height="50" relative="1" as="geometry">
            <mxPoint x="542" y="230" as="sourcePoint" />
            <mxPoint x="-929" y="230" as="targetPoint" />
          </mxGeometry>
        </mxCell>
        <mxCell id="A4LTRsrQjvw_CSVddsjn-146" value="&lt;div style=&quot;box-sizing:border-box;width:100%;background:#e4e4e4;padding:2px;&quot;&gt;&lt;b&gt;servidor&lt;/b&gt;&lt;/div&gt;&lt;table style=&quot;width:100%;font-size:1em;&quot; cellpadding=&quot;2&quot; cellspacing=&quot;0&quot;&gt;&lt;tbody&gt;&lt;tr&gt;&lt;td&gt;&lt;br&gt;&lt;/td&gt;&lt;td&gt;&lt;b&gt;PK&lt;/b&gt; id_servidor&lt;br&gt;nome_servidor&lt;/td&gt;&lt;/tr&gt;&lt;tr&gt;&lt;td&gt;&lt;br&gt;&lt;/td&gt;&lt;td&gt;situacao_funcional (ATIVO)&lt;br&gt;perfil_cargo (ACS)&lt;br&gt;cod_und_lotacao&lt;br&gt;perfil_und_lotacao (tipo_unidade)&lt;br&gt;cnes_und_lotacao&lt;br&gt;setor&lt;br&gt;turno_trabalho&lt;br&gt;fk_id_unidades (fk para tabela unidade)&lt;br&gt;fk_id_distritos (fk para tabela tab_distritos&lt;br&gt;do schema unidades)&lt;br&gt;&lt;br&gt;&lt;br&gt;&lt;/td&gt;&lt;/tr&gt;&lt;tr&gt;&lt;td&gt;&lt;/td&gt;&lt;td&gt;&lt;br&gt;&lt;br&gt;&lt;/td&gt;&lt;/tr&gt;&lt;/tbody&gt;&lt;/table&gt;" style="verticalAlign=top;align=left;overflow=fill;html=1;rounded=0;shadow=0;comic=0;labelBackgroundColor=none;strokeWidth=1;fontFamily=Verdana;fontSize=12" parent="WIyWlLk6GJQsqaUBKTNV-1" vertex="1">
          <mxGeometry x="-880" y="250" width="270" height="230" as="geometry" />
        </mxCell>
        <mxCell id="A4LTRsrQjvw_CSVddsjn-150" value="&lt;div style=&quot;box-sizing:border-box;width:100%;background:#e4e4e4;padding:2px;&quot;&gt;&lt;b&gt;equipes&lt;/b&gt;&lt;/div&gt;&lt;b&gt;PK&lt;/b&gt; id_equipe_cnes&lt;table style=&quot;width:100%;font-size:1em;&quot; cellpadding=&quot;2&quot; cellspacing=&quot;0&quot;&gt;&lt;tbody&gt;&lt;tr&gt;&lt;td&gt;&lt;blockquote style=&quot;margin: 0px 0px 0px 40px; border: none; padding: 0px;&quot;&gt;seq_equipe&lt;/blockquote&gt;&lt;blockquote style=&quot;margin: 0px 0px 0px 40px; border: none; padding: 0px;&quot;&gt;descricao_equipe&lt;/blockquote&gt;&lt;blockquote style=&quot;margin: 0px 0px 0px 40px; border: none; padding: 0px;&quot;&gt;nome_equipe&lt;/blockquote&gt;&lt;blockquote style=&quot;margin: 0px 0px 0px 40px; border: none; padding: 0px;&quot;&gt;turno&lt;/blockquote&gt;&lt;blockquote style=&quot;margin: 0px 0px 0px 40px; border: none; padding: 0px;&quot;&gt;criacao_equipe&lt;/blockquote&gt;&lt;blockquote style=&quot;margin: 0px 0px 0px 40px; border: none; padding: 0px;&quot;&gt;data_desativacao&lt;/blockquote&gt;&lt;blockquote style=&quot;margin: 0px 0px 0px 40px; border: none; padding: 0px;&quot;&gt;sigla_equipe&lt;br&gt;&lt;/blockquote&gt;&lt;blockquote style=&quot;margin: 0px 0px 0px 40px; border: none; padding: 0px;&quot;&gt;fk_id_tipo_equipe (fk para tabela TipoEquipe)&lt;/blockquote&gt;&lt;blockquote style=&quot;margin: 0px 0px 0px 40px; border: none; padding: 0px;&quot;&gt;fk_id_unidades (fk para tabela unidade)&lt;/blockquote&gt;&lt;blockquote style=&quot;margin: 0px 0px 0px 40px; border: none; padding: 0px;&quot;&gt;&lt;table style=&quot;font-size: 1em; width: 290.719px;&quot; cellpadding=&quot;2&quot; cellspacing=&quot;0&quot;&gt;&lt;tbody&gt;&lt;tr&gt;&lt;td&gt;&lt;/td&gt;&lt;td&gt;&lt;blockquote style=&quot;margin: 0px 0px 0px 40px; border: none; padding: 0px;&quot;&gt;&lt;/blockquote&gt;&lt;/td&gt;&lt;td&gt;&lt;br&gt;&lt;/td&gt;&lt;/tr&gt;&lt;/tbody&gt;&lt;/table&gt;&lt;/blockquote&gt;&lt;blockquote style=&quot;margin: 0px 0px 0px 40px; border: none; padding: 0px;&quot;&gt;&lt;br&gt;&lt;/blockquote&gt;&lt;blockquote style=&quot;margin: 0px 0px 0px 40px; border: none; padding: 0px;&quot;&gt;&lt;br&gt;&lt;/blockquote&gt;&lt;blockquote style=&quot;margin: 0px 0px 0px 40px; border: none; padding: 0px;&quot;&gt;&lt;br&gt;&lt;/blockquote&gt;&lt;blockquote style=&quot;margin: 0px 0px 0px 40px; border: none; padding: 0px;&quot;&gt;&lt;br&gt;&lt;/blockquote&gt;&lt;blockquote style=&quot;margin: 0px 0px 0px 40px; border: none; padding: 0px;&quot;&gt;&lt;br&gt;&lt;/blockquote&gt;&lt;blockquote style=&quot;margin: 0px 0px 0px 40px; border: none; padding: 0px;&quot;&gt;&lt;br&gt;&lt;/blockquote&gt;&lt;blockquote style=&quot;margin: 0px 0px 0px 40px; border: none; padding: 0px;&quot;&gt;&lt;br&gt;&lt;/blockquote&gt;&lt;blockquote style=&quot;margin: 0px 0px 0px 40px; border: none; padding: 0px;&quot;&gt;fk cnes_padrao (fk para tabela unidade)&lt;/blockquote&gt;&lt;br&gt;&lt;br&gt;&lt;br&gt;&lt;br&gt;&lt;br&gt;&lt;br&gt;&lt;br&gt;&lt;/td&gt;&lt;td&gt;&lt;/td&gt;&lt;/tr&gt;&lt;tr&gt;&lt;td&gt;&lt;/td&gt;&lt;td&gt;&lt;br&gt;&lt;br&gt;&lt;br&gt;&lt;/td&gt;&lt;/tr&gt;&lt;tr&gt;&lt;td&gt;&lt;/td&gt;&lt;td&gt;&lt;br&gt;&lt;br&gt;&lt;/td&gt;&lt;/tr&gt;&lt;/tbody&gt;&lt;/table&gt;" style="verticalAlign=top;align=left;overflow=fill;html=1;rounded=0;shadow=0;comic=0;labelBackgroundColor=none;strokeWidth=1;fontFamily=Verdana;fontSize=12" parent="WIyWlLk6GJQsqaUBKTNV-1" vertex="1">
          <mxGeometry x="-510" y="490" width="330" height="230" as="geometry" />
        </mxCell>
        <mxCell id="A4LTRsrQjvw_CSVddsjn-151" value="&lt;div style=&quot;box-sizing:border-box;width:100%;background:#e4e4e4;padding:2px;&quot;&gt;&lt;b&gt;tipoEquipe&lt;/b&gt;&lt;/div&gt;&lt;b&gt;PK&amp;nbsp; &amp;nbsp; &amp;nbsp;&lt;/b&gt;id_tipo_equipe&lt;div&gt;&lt;span style=&quot;white-space: pre;&quot;&gt;&#x9;&lt;/span&gt;&amp;nbsp;tipo_equipe&lt;br&gt;&lt;div&gt;&lt;table style=&quot;width:100%;font-size:1em;&quot; cellpadding=&quot;2&quot; cellspacing=&quot;0&quot;&gt;&lt;tbody&gt;&lt;tr&gt;&lt;td&gt;&lt;br&gt;&lt;br&gt;&lt;/td&gt;&lt;td&gt;&lt;/td&gt;&lt;/tr&gt;&lt;tr&gt;&lt;td&gt;&lt;/td&gt;&lt;td&gt;&lt;br&gt;&lt;br&gt;&lt;br&gt;&lt;/td&gt;&lt;/tr&gt;&lt;tr&gt;&lt;td&gt;&lt;/td&gt;&lt;td&gt;&lt;br&gt;&lt;br&gt;&lt;/td&gt;&lt;/tr&gt;&lt;/tbody&gt;&lt;/table&gt;&lt;/div&gt;&lt;/div&gt;" style="verticalAlign=top;align=left;overflow=fill;html=1;rounded=0;shadow=0;comic=0;labelBackgroundColor=none;strokeWidth=1;fontFamily=Verdana;fontSize=12" parent="WIyWlLk6GJQsqaUBKTNV-1" vertex="1">
          <mxGeometry x="-130" y="253" width="220" height="70" as="geometry" />
        </mxCell>
        <mxCell id="A4LTRsrQjvw_CSVddsjn-152" value="&lt;div style=&quot;box-sizing:border-box;width:100%;background:#e4e4e4;padding:2px;&quot;&gt;&lt;b&gt;gerente&lt;/b&gt;&lt;/div&gt;&lt;table style=&quot;width:100%;font-size:1em;&quot; cellpadding=&quot;2&quot; cellspacing=&quot;0&quot;&gt;&lt;tbody&gt;&lt;tr&gt;&lt;td&gt;&lt;b&gt;PK&lt;/b&gt;&amp;nbsp; &amp;nbsp; &amp;nbsp;id_gerente&lt;br&gt;&lt;blockquote style=&quot;margin: 0 0 0 40px; border: none; padding: 0px;&quot;&gt;distrito&lt;br&gt;nome_unidade&lt;br&gt;nome_gerente&amp;nbsp;&lt;br&gt;cargo (gerente de unidade de saúde,&lt;br&gt;só tem esse registro)&lt;br&gt;cpf(tem ponto e traço)&lt;br&gt;contato (telefone)&lt;br&gt;email&lt;br&gt;fk_id_unidades (fk para tabela unidade)&lt;/blockquote&gt;&lt;blockquote style=&quot;margin: 0 0 0 40px; border: none; padding: 0px;&quot;&gt;fk_id_distritos (fk para tabela unidade)&lt;br&gt;&lt;span style=&quot;color: rgba(0, 0, 0, 0); font-family: monospace; font-size: 0px;&quot;&gt;%3CmxGraphModel%3E%3Croot%3E%3CmxCell%20id%3D%220%22%2F%3E%3CmxCell%20id%3D%221%22%20parent%3D%220%22%2F%3E%3CmxCell%20id%3D%222%22%20value%3D%22%26lt%3Bdiv%20style%3D%26quot%3Bbox-sizing%3Aborder-box%3Bwidth%3A100%25%3Bbackground%3A%23e4e4e4%3Bpadding%3A2px%3B%26quot%3B%26gt%3B%26lt%3Bb%26gt%3Bequipes_asu%26lt%3B%2Fb%26gt%3B%26lt%3B%2Fdiv%26gt%3B%26lt%3Btable%20style%3D%26quot%3Bwidth%3A100%25%3Bfont-size%3A1em%3B%26quot%3B%20cellpadding%3D%26quot%3B2%26quot%3B%20cellspacing%3D%26quot%3B0%26quot%3B%26gt%3B%26lt%3Btbody%26gt%3B%26lt%3Btr%26gt%3B%26lt%3Btd%26gt%3Bcnes%26lt%3Bbr%26gt%3Bseq_equipe%26lt%3Bbr%26gt%3Bds_equipe%26lt%3Bbr%26gt%3Bnome_referencia%20(nome%20da%20equipe)%26lt%3Bbr%26gt%3Bqtd_avaliacoes%26lt%3Bbr%26gt%3Basu_pontuacao%26lt%3Bbr%26gt%3Basu_zona%26lt%3Bbr%26gt%3Bcnes_nome%26lt%3Bbr%26gt%3Bano_quad%26lt%3Bbr%26gt%3Bunidade(%20de%20I%20a%20VIII%20em%20algorismos%26lt%3Bbr%26gt%3Bromanos)%26lt%3Bbr%26gt%3Bnumero_quadrimestre%26amp%3Bnbsp%3B%26lt%3B%2Ftd%26gt%3B%26lt%3Btd%26gt%3B%26lt%3Bbr%26gt%3B%26lt%3B%2Ftd%26gt%3B%26lt%3B%2Ftr%26gt%3B%26lt%3Btr%26gt%3B%26lt%3Btd%26gt%3B%26lt%3B%2Ftd%26gt%3B%26lt%3Btd%26gt%3B%26lt%3Bbr%26gt%3B%26lt%3Bbr%26gt%3B%26lt%3Bbr%26gt%3B%26lt%3B%2Ftd%26gt%3B%26lt%3B%2Ftr%26gt%3B%26lt%3Btr%26gt%3B%26lt%3Btd%26gt%3B%26lt%3B%2Ftd%26gt%3B%26lt%3Btd%26gt%3B%26lt%3Bbr%26gt%3B%26lt%3Bbr%26gt%3B%26lt%3B%2Ftd%26gt%3B%26lt%3B%2Ftr%26gt%3B%26lt%3B%2Ftbody%26gt%3B%26lt%3B%2Ftable%26gt%3B%22%20style%3D%22verticalAlign%3Dtop%3Balign%3Dleft%3Boverflow%3Dfill%3Bhtml%3D1%3Brounded%3D0%3Bshadow%3D0%3Bcomic%3D0%3BlabelBackgroundColor%3Dnone%3BstrokeWidth%3D1%3BfontFamily%3DVerdana%3BfontSize%3D12%22%20vertex%3D%221%22%20parent%3D%221%22%3E%3CmxGeometry%20x%3D%22-795%22%20y%3D%22-1620%22%20width%3D%22220%22%20height%3D%22230%22%20as%3D%22geometry%22%2F%3E%3C%2FmxCell%3E%3C%2Froot%3E%3C%2FmxGraphModel%3E&lt;/span&gt;&lt;/blockquote&gt;&lt;/td&gt;&lt;td&gt;&lt;br&gt;&lt;/td&gt;&lt;/tr&gt;&lt;tr&gt;&lt;td&gt;&lt;/td&gt;&lt;td&gt;&lt;br&gt;&lt;br&gt;&lt;br&gt;&lt;/td&gt;&lt;/tr&gt;&lt;tr&gt;&lt;td&gt;&lt;/td&gt;&lt;td&gt;&lt;br&gt;&lt;br&gt;&lt;/td&gt;&lt;/tr&gt;&lt;/tbody&gt;&lt;/table&gt;" style="verticalAlign=top;align=left;overflow=fill;html=1;rounded=0;shadow=0;comic=0;labelBackgroundColor=none;strokeWidth=1;fontFamily=Verdana;fontSize=12" parent="WIyWlLk6GJQsqaUBKTNV-1" vertex="1">
          <mxGeometry x="-40" y="400" width="290" height="230" as="geometry" />
        </mxCell>
        <mxCell id="A4LTRsrQjvw_CSVddsjn-159" value="" style="endArrow=none;html=1;rounded=0;entryX=0.009;entryY=0.371;entryDx=0;entryDy=0;entryPerimeter=0;" parent="WIyWlLk6GJQsqaUBKTNV-1" target="A4LTRsrQjvw_CSVddsjn-151" edge="1">
          <mxGeometry width="50" height="50" relative="1" as="geometry">
            <mxPoint x="-550" y="630" as="sourcePoint" />
            <mxPoint x="-160" y="370" as="targetPoint" />
            <Array as="points">
              <mxPoint x="-550" y="280" />
            </Array>
          </mxGeometry>
        </mxCell>
        <mxCell id="A4LTRsrQjvw_CSVddsjn-160" value="" style="endArrow=none;html=1;rounded=0;entryX=0.003;entryY=0.135;entryDx=0;entryDy=0;entryPerimeter=0;" parent="WIyWlLk6GJQsqaUBKTNV-1" edge="1">
          <mxGeometry width="50" height="50" relative="1" as="geometry">
            <mxPoint x="-550" y="630" as="sourcePoint" />
            <mxPoint x="-509.0100000000002" y="630.0500000000002" as="targetPoint" />
          </mxGeometry>
        </mxCell>
      </root>
    </mxGraphModel>
  </diagram>
</mxfile>
